<svg width="20" height="20" viewBox="0 0 20 20" fill="none" xmlns="http://www.w3.org/2000/svg">
<path d="M16.1 8.33333H3.90833C2.67499 8.33333 1.67499 7.325 1.67499 6.1V3.90833C1.67499 2.67499 2.68333 1.67499 3.90833 1.67499H16.1C17.3333 1.67499 18.3333 2.68333 18.3333 3.90833V6.1C18.3333 7.325 17.325 8.33333 16.1 8.33333Z" stroke="#65717C" stroke-width="1.5" stroke-linecap="round" stroke-linejoin="round"/>
<path d="M16.1 18.3333H3.90833C2.67499 18.3333 1.67499 17.325 1.67499 16.1V13.9083C1.67499 12.675 2.68333 11.675 3.90833 11.675H16.1C17.3333 11.675 18.3333 12.6833 18.3333 13.9083V16.1C18.3333 17.325 17.325 18.3333 16.1 18.3333Z" stroke="#65717C" stroke-width="1.5" stroke-linecap="round" stroke-linejoin="round"/>
<path d="M5 4.16666V5.83332" stroke="#65717C" stroke-width="1.5" stroke-linecap="round" stroke-linejoin="round"/>
<path d="M8.33331 4.16666V5.83332" stroke="#65717C" stroke-width="1.5" stroke-linecap="round" stroke-linejoin="round"/>
<path d="M5 14.1667V15.8333" stroke="#65717C" stroke-width="1.5" stroke-linecap="round" stroke-linejoin="round"/>
<path d="M8.33331 14.1667V15.8333" stroke="#65717C" stroke-width="1.5" stroke-linecap="round" stroke-linejoin="round"/>
<path d="M11.6667 5H15" stroke="#65717C" stroke-width="1.5" stroke-linecap="round" stroke-linejoin="round"/>
<path d="M11.6667 15H15" stroke="#65717C" stroke-width="1.5" stroke-linecap="round" stroke-linejoin="round"/>
</svg>
