<svg width="20" height="20" viewBox="0 0 20 20" fill="none" xmlns="http://www.w3.org/2000/svg">
<path d="M16.6667 5.79168V14.2083C16.5333 14.1833 16.3917 14.1667 16.25 14.1667C15.1 14.1667 14.1667 15.1 14.1667 16.25C14.1667 16.3917 14.1833 16.5333 14.2083 16.6667H5.79168C5.81668 16.5333 5.83334 16.3917 5.83334 16.25C5.83334 15.1 4.90001 14.1667 3.75001 14.1667C3.60834 14.1667 3.46668 14.1833 3.33334 14.2083V5.79168C3.46668 5.81668 3.60834 5.83334 3.75001 5.83334C4.90001 5.83334 5.83334 4.90001 5.83334 3.75001C5.83334 3.60834 5.81668 3.46668 5.79168 3.33334H14.2083C14.1833 3.46668 14.1667 3.60834 14.1667 3.75001C14.1667 4.90001 15.1 5.83334 16.25 5.83334C16.3917 5.83334 16.5333 5.81668 16.6667 5.79168Z" stroke="#65717C" stroke-width="1.5" stroke-linecap="round" stroke-linejoin="round"/>
<path d="M5.83332 3.74999C5.83332 4.89999 4.89999 5.83332 3.74999 5.83332C3.60832 5.83332 3.46666 5.81666 3.33332 5.79166C2.38332 5.59999 1.66666 4.75832 1.66666 3.74999C1.66666 2.59999 2.59999 1.66666 3.74999 1.66666C4.75832 1.66666 5.59999 2.38332 5.79166 3.33332C5.81666 3.46666 5.83332 3.60832 5.83332 3.74999Z" stroke="#65717C" stroke-width="1.5" stroke-linecap="round" stroke-linejoin="round"/>
<path d="M18.3333 3.74999C18.3333 4.75832 17.6167 5.59999 16.6667 5.79166C16.5333 5.81666 16.3917 5.83332 16.25 5.83332C15.1 5.83332 14.1667 4.89999 14.1667 3.74999C14.1667 3.60832 14.1833 3.46666 14.2083 3.33332C14.4 2.38332 15.2417 1.66666 16.25 1.66666C17.4 1.66666 18.3333 2.59999 18.3333 3.74999Z" stroke="#65717C" stroke-width="1.5" stroke-linecap="round" stroke-linejoin="round"/>
<path d="M5.83332 16.25C5.83332 16.3917 5.81666 16.5333 5.79166 16.6667C5.59999 17.6167 4.75832 18.3333 3.74999 18.3333C2.59999 18.3333 1.66666 17.4 1.66666 16.25C1.66666 15.2417 2.38332 14.4 3.33332 14.2083C3.46666 14.1833 3.60832 14.1667 3.74999 14.1667C4.89999 14.1667 5.83332 15.1 5.83332 16.25Z" stroke="#65717C" stroke-width="1.5" stroke-linecap="round" stroke-linejoin="round"/>
<path d="M18.3333 16.25C18.3333 17.4 17.4 18.3333 16.25 18.3333C15.2417 18.3333 14.4 17.6167 14.2083 16.6667C14.1833 16.5333 14.1667 16.3917 14.1667 16.25C14.1667 15.1 15.1 14.1667 16.25 14.1667C16.3917 14.1667 16.5333 14.1833 16.6667 14.2083C17.6167 14.4 18.3333 15.2417 18.3333 16.25Z" stroke="#65717C" stroke-width="1.5" stroke-linecap="round" stroke-linejoin="round"/>
</svg>
