<svg width="17" height="16" viewBox="0 0 17 16" fill="none" xmlns="http://www.w3.org/2000/svg">
<path d="M13.8334 4.63333V11.3667C13.7267 11.3467 13.6134 11.3333 13.5 11.3333C12.58 11.3333 11.8334 12.08 11.8334 13C11.8334 13.1133 11.8467 13.2267 11.8667 13.3333H5.13335C5.15335 13.2267 5.16669 13.1133 5.16669 13C5.16669 12.08 4.42002 11.3333 3.50002 11.3333C3.38669 11.3333 3.27335 11.3467 3.16669 11.3667V4.63333C3.27335 4.65333 3.38669 4.66666 3.50002 4.66666C4.42002 4.66666 5.16669 3.92 5.16669 3C5.16669 2.88666 5.15335 2.77333 5.13335 2.66666H11.8667C11.8467 2.77333 11.8334 2.88666 11.8334 3C11.8334 3.92 12.58 4.66666 13.5 4.66666C13.6134 4.66666 13.7267 4.65333 13.8334 4.63333Z" stroke="#F7931A" stroke-width="1.5" stroke-linecap="round" stroke-linejoin="round"/>
<path d="M5.16665 3C5.16665 3.92 4.41998 4.66667 3.49998 4.66667C3.38665 4.66667 3.27331 4.65334 3.16665 4.63334C2.40665 4.48 1.83331 3.80667 1.83331 3C1.83331 2.08 2.57998 1.33334 3.49998 1.33334C4.30665 1.33334 4.97998 1.90667 5.13331 2.66667C5.15331 2.77334 5.16665 2.88667 5.16665 3Z" stroke="#F7931A" stroke-width="1.5" stroke-linecap="round" stroke-linejoin="round"/>
<path d="M15.1666 3C15.1666 3.80667 14.5933 4.48 13.8333 4.63334C13.7266 4.65334 13.6133 4.66667 13.5 4.66667C12.58 4.66667 11.8333 3.92 11.8333 3C11.8333 2.88667 11.8466 2.77334 11.8666 2.66667C12.02 1.90667 12.6933 1.33334 13.5 1.33334C14.42 1.33334 15.1666 2.08 15.1666 3Z" stroke="#F7931A" stroke-width="1.5" stroke-linecap="round" stroke-linejoin="round"/>
<path d="M5.16665 13C5.16665 13.1133 5.15331 13.2267 5.13331 13.3333C4.97998 14.0933 4.30665 14.6667 3.49998 14.6667C2.57998 14.6667 1.83331 13.92 1.83331 13C1.83331 12.1933 2.40665 11.52 3.16665 11.3667C3.27331 11.3467 3.38665 11.3333 3.49998 11.3333C4.41998 11.3333 5.16665 12.08 5.16665 13Z" stroke="#F7931A" stroke-width="1.5" stroke-linecap="round" stroke-linejoin="round"/>
<path d="M15.1666 13C15.1666 13.92 14.42 14.6667 13.5 14.6667C12.6933 14.6667 12.02 14.0933 11.8666 13.3333C11.8466 13.2267 11.8333 13.1133 11.8333 13C11.8333 12.08 12.58 11.3333 13.5 11.3333C13.6133 11.3333 13.7266 11.3467 13.8333 11.3667C14.5933 11.52 15.1666 12.1933 15.1666 13Z" stroke="#F7931A" stroke-width="1.5" stroke-linecap="round" stroke-linejoin="round"/>
</svg>
