<svg width="864" height="122" viewBox="0 0 864 122" fill="none" xmlns="http://www.w3.org/2000/svg">
<rect x="797.5" y="0.5" width="35" height="35" rx="7.5" fill="white"/>
<path d="M820.267 19H809.733C808.733 19 808.333 19.4267 808.333 20.4867V23.18C808.333 24.24 808.733 24.6667 809.733 24.6667H820.267C821.267 24.6667 821.667 24.24 821.667 23.18V20.4867C821.667 19.4267 821.267 19 820.267 19Z" fill="white" stroke="#65717C" stroke-width="1.5" stroke-linecap="round" stroke-linejoin="round"/>
<path d="M820.267 11.3333H809.733C808.733 11.3333 808.333 11.76 808.333 12.82V15.5133C808.333 16.5733 808.733 17 809.733 17H820.267C821.267 17 821.667 16.5733 821.667 15.5133V12.82C821.667 11.76 821.267 11.3333 820.267 11.3333Z" fill="white" stroke="#65717C" stroke-width="1.5" stroke-linecap="round" stroke-linejoin="round"/>
<rect x="797.5" y="0.5" width="35" height="35" rx="7.5" stroke="#E1E1E1"/>
<rect x="749.5" y="0.5" width="35" height="35" rx="7.5" fill="white"/>
<path d="M773.667 15.68V12.6533C773.667 11.7133 773.24 11.3333 772.18 11.3333H769.487C768.427 11.3333 768 11.7133 768 12.6533V15.6733C768 16.62 768.427 16.9933 769.487 16.9933H772.18C773.24 17 773.667 16.62 773.667 15.68Z" fill="white" stroke="#5444F2" stroke-width="1.5" stroke-linecap="round" stroke-linejoin="round"/>
<path d="M773.667 23.18V20.4867C773.667 19.4267 773.24 19 772.18 19H769.487C768.427 19 768 19.4267 768 20.4867V23.18C768 24.24 768.427 24.6667 769.487 24.6667H772.18C773.24 24.6667 773.667 24.24 773.667 23.18Z" fill="white" stroke="#5444F2" stroke-width="1.5" stroke-linecap="round" stroke-linejoin="round"/>
<path d="M766 15.68V12.6533C766 11.7133 765.573 11.3333 764.513 11.3333H761.82C760.76 11.3333 760.333 11.7133 760.333 12.6533V15.6733C760.333 16.62 760.76 16.9933 761.82 16.9933H764.513C765.573 17 766 16.62 766 15.68Z" stroke="#5444F2" stroke-width="1.5" stroke-linecap="round" stroke-linejoin="round"/>
<path d="M766 23.18V20.4867C766 19.4267 765.573 19 764.513 19H761.82C760.76 19 760.333 19.4267 760.333 20.4867V23.18C760.333 24.24 760.76 24.6667 761.82 24.6667H764.513C765.573 24.6667 766 24.24 766 23.18Z" stroke="#5444F2" stroke-width="1.5" stroke-linecap="round" stroke-linejoin="round"/>
<rect x="749.5" y="0.5" width="35" height="35" rx="7.5" stroke="#5444F2"/>
<rect x="359.25" y="58.25" width="473.5" height="43.5" rx="7.75" fill="white" stroke="#E1E1E1" stroke-width="0.5"/>
<path d="M811.667 86C815.164 86 818 83.1645 818 79.6667C818 76.1689 815.164 73.3333 811.667 73.3333C808.169 73.3333 805.333 76.1689 805.333 79.6667C805.333 83.1645 808.169 86 811.667 86Z" stroke="#65717C" stroke-width="1.5" stroke-linecap="round" stroke-linejoin="round"/>
<path d="M818.667 86.6667L817.333 85.3333" stroke="#65717C" stroke-width="1.5" stroke-linecap="round" stroke-linejoin="round"/>
<path d="M383.328 75.952H381.872C381.712 74.4053 380.768 73.632 379.04 73.632C378.219 73.632 377.584 73.7973 377.136 74.128C376.688 74.4587 376.464 74.9227 376.464 75.52C376.464 75.7333 376.496 75.92 376.56 76.08C376.624 76.24 376.731 76.384 376.88 76.512C377.04 76.6293 377.189 76.7307 377.328 76.816C377.467 76.9013 377.685 76.9867 377.984 77.072C378.283 77.1573 378.523 77.2213 378.704 77.264C378.885 77.296 379.168 77.3547 379.552 77.44C380.021 77.536 380.411 77.6267 380.72 77.712C381.029 77.7867 381.397 77.9147 381.824 78.096C382.251 78.2773 382.587 78.48 382.832 78.704C383.088 78.9173 383.307 79.2053 383.488 79.568C383.68 79.9307 383.776 80.3413 383.776 80.8C383.776 81.6 383.552 82.272 383.104 82.816C382.656 83.3493 382.112 83.7227 381.472 83.936C380.832 84.1493 380.123 84.256 379.344 84.256C377.915 84.256 376.768 83.92 375.904 83.248C375.051 82.5653 374.624 81.5627 374.624 80.24H376.08C376.112 81.2107 376.437 81.92 377.056 82.368C377.675 82.8053 378.48 83.024 379.472 83.024C380.251 83.024 380.917 82.864 381.472 82.544C382.027 82.2133 382.304 81.68 382.304 80.944C382.304 80.6027 382.229 80.3147 382.08 80.08C381.931 79.8347 381.696 79.6373 381.376 79.488C381.056 79.328 380.736 79.2 380.416 79.104C380.096 79.008 379.675 78.9013 379.152 78.784C379.077 78.7733 379.024 78.7627 378.992 78.752C377.819 78.4853 377.051 78.272 376.688 78.112C375.579 77.632 375.024 76.8053 375.024 75.632C375.024 74.544 375.424 73.7333 376.224 73.2C377.035 72.656 378.011 72.384 379.152 72.384C380.4 72.384 381.397 72.6827 382.144 73.28C382.891 73.8773 383.285 74.768 383.328 75.952ZM392.455 81.392C392.039 83.312 390.839 84.272 388.855 84.272C387.639 84.272 386.684 83.8933 385.991 83.136C385.308 82.3787 384.967 81.328 384.967 79.984C384.967 78.6507 385.319 77.5733 386.023 76.752C386.738 75.92 387.666 75.504 388.807 75.504C390.076 75.504 391.015 75.936 391.623 76.8C392.242 77.6533 392.551 78.736 392.551 80.048V80.24H386.343L386.327 80.336C386.327 81.2107 386.556 81.8987 387.015 82.4C387.474 82.9013 388.103 83.152 388.903 83.152C389.5 83.152 389.97 83.0133 390.311 82.736C390.663 82.4587 390.935 82.0107 391.127 81.392H392.455ZM391.143 79.136C391.079 78.3467 390.839 77.7333 390.423 77.296C390.007 76.848 389.458 76.624 388.775 76.624C388.114 76.624 387.564 76.848 387.127 77.296C386.69 77.744 386.428 78.3573 386.343 79.136H391.143ZM401.305 82.912V83.968C401.027 84.0747 400.718 84.128 400.377 84.128C399.598 84.128 399.198 83.7227 399.177 82.912C398.398 83.7867 397.401 84.224 396.185 84.224C395.374 84.224 394.729 84.016 394.249 83.6C393.779 83.184 393.545 82.6133 393.545 81.888C393.545 80.416 394.521 79.5573 396.473 79.312C396.601 79.2907 396.787 79.2693 397.033 79.248C397.961 79.1413 398.531 79.0187 398.745 78.88C398.99 78.7093 399.113 78.416 399.113 78C399.113 77.0933 398.489 76.64 397.241 76.64C396.601 76.64 396.115 76.7733 395.785 77.04C395.454 77.296 395.257 77.7227 395.193 78.32H393.865C393.886 77.4347 394.201 76.7467 394.809 76.256C395.417 75.7653 396.254 75.52 397.321 75.52C398.483 75.52 399.347 75.7867 399.913 76.32C400.094 76.4907 400.227 76.7147 400.313 76.992C400.398 77.2693 400.446 77.4987 400.457 77.68C400.467 77.8507 400.473 78.112 400.473 78.464C400.473 78.8693 400.462 79.4827 400.441 80.304C400.419 81.1253 400.409 81.7387 400.409 82.144C400.409 82.4427 400.446 82.656 400.521 82.784C400.606 82.9013 400.755 82.96 400.969 82.96C401.054 82.96 401.166 82.944 401.305 82.912ZM399.113 79.712C399.017 79.7867 398.915 79.8507 398.809 79.904C398.702 79.9573 398.563 80 398.393 80.032C398.233 80.064 398.121 80.0907 398.057 80.112C398.003 80.1227 397.865 80.144 397.641 80.176C397.417 80.1973 397.299 80.208 397.289 80.208C396.958 80.2507 396.739 80.2827 396.633 80.304C396.537 80.3147 396.345 80.3573 396.057 80.432C395.779 80.5067 395.582 80.592 395.465 80.688C395.347 80.784 395.23 80.928 395.113 81.12C395.006 81.3013 394.953 81.52 394.953 81.776C394.953 82.2027 395.097 82.5387 395.385 82.784C395.683 83.0293 396.089 83.152 396.601 83.152C397.251 83.152 397.833 82.96 398.345 82.576C398.857 82.192 399.113 81.7387 399.113 81.216V79.712ZM406.891 75.552V76.96C406.795 76.9493 406.677 76.944 406.539 76.944C406.101 76.944 405.723 77.0133 405.403 77.152C405.083 77.28 404.827 77.4507 404.635 77.664C404.453 77.8773 404.304 78.144 404.187 78.464C404.069 78.784 403.989 79.104 403.947 79.424C403.915 79.744 403.899 80.1067 403.899 80.512V84H402.539V75.744H403.835V77.52C404.379 76.208 405.397 75.552 406.891 75.552ZM414.737 80.992C414.62 81.984 414.241 82.7733 413.601 83.36C412.972 83.9467 412.151 84.24 411.137 84.24C409.889 84.24 408.924 83.856 408.241 83.088C407.559 82.3093 407.217 81.2747 407.217 79.984C407.217 78.608 407.575 77.52 408.289 76.72C409.004 75.9093 409.969 75.504 411.185 75.504C412.199 75.504 413.009 75.76 413.617 76.272C414.225 76.7733 414.583 77.4933 414.689 78.432H413.281C413.036 77.2373 412.343 76.64 411.201 76.64C410.412 76.64 409.788 76.9333 409.329 77.52C408.871 78.096 408.641 78.88 408.641 79.872C408.641 80.8747 408.86 81.664 409.297 82.24C409.735 82.816 410.337 83.104 411.105 83.104C411.724 83.104 412.225 82.9227 412.609 82.56C413.004 82.1973 413.255 81.6747 413.361 80.992H414.737ZM417.587 72.608V76.912C418.195 75.9947 419.096 75.536 420.291 75.536C422.147 75.536 423.075 76.4747 423.075 78.352V84H421.715V78.672C421.715 78.0427 421.582 77.5627 421.315 77.232C421.059 76.8907 420.59 76.72 419.907 76.72C419.075 76.72 418.478 76.9867 418.115 77.52C417.763 78.0533 417.587 78.816 417.587 79.808V84H416.227V72.608H417.587ZM433.299 72.576V73.76C433.064 73.7173 432.814 73.696 432.547 73.696C432.12 73.696 431.838 73.7653 431.699 73.904C431.571 74.0427 431.507 74.3413 431.507 74.8V75.744H433.091V76.864H431.507V84H430.131V76.864H428.739V75.744H430.131V74.64C430.131 73.8933 430.323 73.3547 430.707 73.024C431.091 72.6827 431.662 72.512 432.419 72.512C432.654 72.512 432.947 72.5333 433.299 72.576ZM434.961 76.688C435.687 75.8987 436.673 75.504 437.921 75.504C439.169 75.504 440.14 75.8827 440.833 76.64C441.527 77.3973 441.873 78.4587 441.873 79.824C441.873 81.2213 441.527 82.3093 440.833 83.088C440.14 83.8667 439.164 84.256 437.905 84.256C436.647 84.256 435.66 83.872 434.945 83.104C434.231 82.336 433.873 81.2693 433.873 79.904C433.873 78.5493 434.236 77.4773 434.961 76.688ZM439.777 77.52C439.319 76.9333 438.689 76.64 437.889 76.64C437.089 76.64 436.455 76.9333 435.985 77.52C435.516 78.1067 435.281 78.8907 435.281 79.872C435.281 80.8853 435.511 81.68 435.969 82.256C436.439 82.8213 437.089 83.104 437.921 83.104C438.721 83.104 439.345 82.816 439.793 82.24C440.252 81.664 440.481 80.8693 440.481 79.856C440.481 78.8747 440.247 78.096 439.777 77.52ZM447.797 75.552V76.96C447.701 76.9493 447.583 76.944 447.445 76.944C447.007 76.944 446.629 77.0133 446.309 77.152C445.989 77.28 445.733 77.4507 445.541 77.664C445.359 77.8773 445.21 78.144 445.093 78.464C444.975 78.784 444.895 79.104 444.853 79.424C444.821 79.744 444.805 80.1067 444.805 80.512V84H443.445V75.744H444.741V77.52C445.285 76.208 446.303 75.552 447.797 75.552ZM452.474 75.744H453.994L456.33 82.672L458.602 75.744H460.026L457.002 84H455.546L452.474 75.744ZM462.714 72.608V74.272H461.338V72.608H462.714ZM462.714 75.744V84H461.338V75.744H462.714ZM469.125 75.552V76.96C469.029 76.9493 468.912 76.944 468.773 76.944C468.336 76.944 467.957 77.0133 467.637 77.152C467.317 77.28 467.061 77.4507 466.869 77.664C466.688 77.8773 466.538 78.144 466.421 78.464C466.304 78.784 466.224 79.104 466.181 79.424C466.149 79.744 466.133 80.1067 466.133 80.512V84H464.773V75.744H466.069V77.52C466.613 76.208 467.632 75.552 469.125 75.552ZM473.685 75.744V76.864H472.037V81.68C472.037 81.9467 472.037 82.1227 472.037 82.208C472.048 82.2933 472.08 82.4107 472.133 82.56C472.186 82.6987 472.277 82.7893 472.405 82.832C472.533 82.8747 472.714 82.896 472.949 82.896C473.152 82.896 473.397 82.88 473.685 82.848V84.016C473.301 84.0587 472.954 84.08 472.645 84.08C472.261 84.08 471.941 84.0373 471.685 83.952C471.429 83.8667 471.232 83.7707 471.093 83.664C470.965 83.5573 470.869 83.3707 470.805 83.104C470.741 82.8267 470.704 82.5973 470.693 82.416C470.682 82.224 470.677 81.9093 470.677 81.472C470.677 81.44 470.677 81.4187 470.677 81.408C470.677 81.3867 470.677 81.36 470.677 81.328C470.677 81.296 470.677 81.2693 470.677 81.248V76.864H469.285V75.744H470.677V73.296H472.037V75.744H473.685ZM482.044 75.744V84H480.78V82.704C480.076 83.7173 479.127 84.224 477.932 84.224C477.057 84.224 476.38 83.984 475.9 83.504C475.42 83.024 475.18 82.3307 475.18 81.424V75.744H476.54V81.056C476.54 81.7067 476.663 82.2027 476.908 82.544C477.164 82.8747 477.617 83.04 478.268 83.04C479.879 83.04 480.684 82.048 480.684 80.064V75.744H482.044ZM491.399 82.912V83.968C491.121 84.0747 490.812 84.128 490.471 84.128C489.692 84.128 489.292 83.7227 489.271 82.912C488.492 83.7867 487.495 84.224 486.279 84.224C485.468 84.224 484.823 84.016 484.343 83.6C483.873 83.184 483.639 82.6133 483.639 81.888C483.639 80.416 484.615 79.5573 486.567 79.312C486.695 79.2907 486.881 79.2693 487.127 79.248C488.055 79.1413 488.625 79.0187 488.839 78.88C489.084 78.7093 489.207 78.416 489.207 78C489.207 77.0933 488.583 76.64 487.335 76.64C486.695 76.64 486.209 76.7733 485.879 77.04C485.548 77.296 485.351 77.7227 485.287 78.32H483.959C483.98 77.4347 484.295 76.7467 484.903 76.256C485.511 75.7653 486.348 75.52 487.415 75.52C488.577 75.52 489.441 75.7867 490.007 76.32C490.188 76.4907 490.321 76.7147 490.407 76.992C490.492 77.2693 490.54 77.4987 490.551 77.68C490.561 77.8507 490.567 78.112 490.567 78.464C490.567 78.8693 490.556 79.4827 490.535 80.304C490.513 81.1253 490.503 81.7387 490.503 82.144C490.503 82.4427 490.54 82.656 490.615 82.784C490.7 82.9013 490.849 82.96 491.062 82.96C491.148 82.96 491.26 82.944 491.399 82.912ZM489.207 79.712C489.111 79.7867 489.009 79.8507 488.903 79.904C488.796 79.9573 488.657 80 488.487 80.032C488.327 80.064 488.215 80.0907 488.151 80.112C488.097 80.1227 487.959 80.144 487.735 80.176C487.511 80.1973 487.393 80.208 487.383 80.208C487.052 80.2507 486.833 80.2827 486.727 80.304C486.631 80.3147 486.439 80.3573 486.151 80.432C485.873 80.5067 485.676 80.592 485.559 80.688C485.441 80.784 485.324 80.928 485.207 81.12C485.1 81.3013 485.047 81.52 485.047 81.776C485.047 82.2027 485.191 82.5387 485.479 82.784C485.777 83.0293 486.183 83.152 486.695 83.152C487.345 83.152 487.927 82.96 488.439 82.576C488.951 82.192 489.207 81.7387 489.207 81.216V79.712ZM494.12 72.608V84H492.744V72.608H494.12ZM507.992 82.912V83.968C507.715 84.0747 507.406 84.128 507.064 84.128C506.286 84.128 505.886 83.7227 505.864 82.912C505.086 83.7867 504.088 84.224 502.872 84.224C502.062 84.224 501.416 84.016 500.936 83.6C500.467 83.184 500.232 82.6133 500.232 81.888C500.232 80.416 501.208 79.5573 503.16 79.312C503.288 79.2907 503.475 79.2693 503.72 79.248C504.648 79.1413 505.219 79.0187 505.432 78.88C505.678 78.7093 505.8 78.416 505.8 78C505.8 77.0933 505.176 76.64 503.928 76.64C503.288 76.64 502.803 76.7733 502.472 77.04C502.142 77.296 501.944 77.7227 501.88 78.32H500.552C500.574 77.4347 500.888 76.7467 501.496 76.256C502.104 75.7653 502.942 75.52 504.008 75.52C505.171 75.52 506.035 75.7867 506.6 76.32C506.782 76.4907 506.915 76.7147 507 76.992C507.086 77.2693 507.134 77.4987 507.144 77.68C507.155 77.8507 507.16 78.112 507.16 78.464C507.16 78.8693 507.15 79.4827 507.128 80.304C507.107 81.1253 507.096 81.7387 507.096 82.144C507.096 82.4427 507.134 82.656 507.208 82.784C507.294 82.9013 507.443 82.96 507.656 82.96C507.742 82.96 507.854 82.944 507.992 82.912ZM505.8 79.712C505.704 79.7867 505.603 79.8507 505.496 79.904C505.39 79.9573 505.251 80 505.08 80.032C504.92 80.064 504.808 80.0907 504.744 80.112C504.691 80.1227 504.552 80.144 504.328 80.176C504.104 80.1973 503.987 80.208 503.976 80.208C503.646 80.2507 503.427 80.2827 503.32 80.304C503.224 80.3147 503.032 80.3573 502.744 80.432C502.467 80.5067 502.27 80.592 502.152 80.688C502.035 80.784 501.918 80.928 501.8 81.12C501.694 81.3013 501.64 81.52 501.64 81.776C501.64 82.2027 501.784 82.5387 502.072 82.784C502.371 83.0293 502.776 83.152 503.288 83.152C503.939 83.152 504.52 82.96 505.032 82.576C505.544 82.192 505.8 81.7387 505.8 81.216V79.712ZM516.378 80.992C516.261 81.984 515.882 82.7733 515.242 83.36C514.613 83.9467 513.791 84.24 512.778 84.24C511.53 84.24 510.565 83.856 509.882 83.088C509.199 82.3093 508.858 81.2747 508.858 79.984C508.858 78.608 509.215 77.52 509.93 76.72C510.645 75.9093 511.61 75.504 512.826 75.504C513.839 75.504 514.65 75.76 515.258 76.272C515.866 76.7733 516.223 77.4933 516.33 78.432H514.922C514.677 77.2373 513.983 76.64 512.842 76.64C512.053 76.64 511.429 76.9333 510.97 77.52C510.511 78.096 510.282 78.88 510.282 79.872C510.282 80.8747 510.501 81.664 510.938 82.24C511.375 82.816 511.978 83.104 512.746 83.104C513.365 83.104 513.866 82.9227 514.25 82.56C514.645 82.1973 514.895 81.6747 515.002 80.992H516.378ZM524.972 80.992C524.854 81.984 524.476 82.7733 523.836 83.36C523.206 83.9467 522.385 84.24 521.372 84.24C520.124 84.24 519.158 83.856 518.476 83.088C517.793 82.3093 517.452 81.2747 517.452 79.984C517.452 78.608 517.809 77.52 518.524 76.72C519.238 75.9093 520.204 75.504 521.42 75.504C522.433 75.504 523.244 75.76 523.852 76.272C524.46 76.7733 524.817 77.4933 524.924 78.432H523.516C523.27 77.2373 522.577 76.64 521.436 76.64C520.646 76.64 520.022 76.9333 519.564 77.52C519.105 78.096 518.876 78.88 518.876 79.872C518.876 80.8747 519.094 81.664 519.532 82.24C519.969 82.816 520.572 83.104 521.34 83.104C521.958 83.104 522.46 82.9227 522.844 82.56C523.238 82.1973 523.489 81.6747 523.596 80.992H524.972ZM527.118 76.688C527.843 75.8987 528.83 75.504 530.078 75.504C531.326 75.504 532.296 75.8827 532.99 76.64C533.683 77.3973 534.03 78.4587 534.03 79.824C534.03 81.2213 533.683 82.3093 532.99 83.088C532.296 83.8667 531.32 84.256 530.062 84.256C528.803 84.256 527.816 83.872 527.102 83.104C526.387 82.336 526.03 81.2693 526.03 79.904C526.03 78.5493 526.392 77.4773 527.118 76.688ZM531.934 77.52C531.475 76.9333 530.846 76.64 530.046 76.64C529.246 76.64 528.611 76.9333 528.142 77.52C527.672 78.1067 527.438 78.8907 527.438 79.872C527.438 80.8853 527.667 81.68 528.126 82.256C528.595 82.8213 529.246 83.104 530.078 83.104C530.878 83.104 531.502 82.816 531.95 82.24C532.408 81.664 532.638 80.8693 532.638 79.856C532.638 78.8747 532.403 78.096 531.934 77.52ZM542.497 75.744V84H541.233V82.704C540.529 83.7173 539.58 84.224 538.385 84.224C537.51 84.224 536.833 83.984 536.353 83.504C535.873 83.024 535.633 82.3307 535.633 81.424V75.744H536.993V81.056C536.993 81.7067 537.116 82.2027 537.361 82.544C537.617 82.8747 538.07 83.04 538.721 83.04C540.332 83.04 541.137 82.048 541.137 80.064V75.744H542.497ZM545.82 75.744V77.024C546.502 76.0213 547.441 75.52 548.636 75.52C549.606 75.52 550.305 75.776 550.732 76.288C551.169 76.7893 551.388 77.5307 551.388 78.512V84H550.028V79.136C550.028 78.7307 550.012 78.416 549.98 78.192C549.958 77.9573 549.894 77.712 549.788 77.456C549.681 77.1893 549.5 76.9973 549.244 76.88C548.988 76.7627 548.657 76.704 548.252 76.704C546.684 76.704 545.9 77.696 545.9 79.68V84H544.54V75.744H545.82ZM556.966 75.744V76.864H555.318V81.68C555.318 81.9467 555.318 82.1227 555.318 82.208C555.329 82.2933 555.361 82.4107 555.414 82.56C555.468 82.6987 555.558 82.7893 555.686 82.832C555.814 82.8747 555.996 82.896 556.23 82.896C556.433 82.896 556.678 82.88 556.966 82.848V84.016C556.582 84.0587 556.236 84.08 555.926 84.08C555.542 84.08 555.222 84.0373 554.966 83.952C554.71 83.8667 554.513 83.7707 554.374 83.664C554.246 83.5573 554.15 83.3707 554.086 83.104C554.022 82.8267 553.985 82.5973 553.974 82.416C553.964 82.224 553.958 81.9093 553.958 81.472C553.958 81.44 553.958 81.4187 553.958 81.408C553.958 81.3867 553.958 81.36 553.958 81.328C553.958 81.296 553.958 81.2693 553.958 81.248V76.864H552.566V75.744H553.958V73.296H555.318V75.744H556.966Z" fill="#65717C"/>
<path d="M11.48 7.608L7.192 14.472V19H5.224V14.472L0.92 7.608H3.224L6.248 12.648L9.24 7.608H11.48ZM14.6903 10.504C15.9489 10.504 16.9516 10.8987 17.6983 11.688C18.4449 12.4773 18.8183 13.5387 18.8183 14.872C18.8183 16.216 18.4449 17.2827 17.6983 18.072C16.9623 18.8613 15.9596 19.256 14.6903 19.256C13.3996 19.256 12.3756 18.8613 11.6183 18.072C10.8609 17.2827 10.4823 16.216 10.4823 14.872C10.4823 13.5387 10.8609 12.4773 11.6183 11.688C12.3863 10.8987 13.4103 10.504 14.6903 10.504ZM16.3543 12.728C15.9489 12.2053 15.3836 11.944 14.6583 11.944C13.9329 11.944 13.3623 12.2053 12.9463 12.728C12.5303 13.2507 12.3223 13.9653 12.3223 14.872C12.3223 15.8 12.5303 16.5253 12.9463 17.048C13.3623 17.5707 13.9383 17.832 14.6743 17.832C15.3889 17.832 15.9489 17.5707 16.3543 17.048C16.7703 16.5147 16.9783 15.784 16.9783 14.856C16.9783 13.9493 16.7703 13.24 16.3543 12.728ZM27.5986 10.744V19H25.8866V17.768C25.1933 18.7387 24.2866 19.224 23.1666 19.224C22.26 19.224 21.5613 18.968 21.0706 18.456C20.5906 17.9333 20.3506 17.1867 20.3506 16.216V10.744H22.1746V15.464C22.1746 15.752 22.18 15.9867 22.1906 16.168C22.2013 16.3387 22.2333 16.536 22.2866 16.76C22.3506 16.9733 22.436 17.1387 22.5426 17.256C22.66 17.3733 22.82 17.4747 23.0226 17.56C23.236 17.6453 23.492 17.688 23.7906 17.688C24.4733 17.688 24.9746 17.448 25.2946 16.968C25.6146 16.4773 25.7746 15.8587 25.7746 15.112V10.744H27.5986ZM34.2101 10.584V12.328C33.8901 12.296 33.6768 12.28 33.5701 12.28C31.9808 12.28 31.1861 13.3093 31.1861 15.368V19H29.3781V10.744H31.0901V12.392C31.6768 11.1653 32.5995 10.552 33.8581 10.552L34.2101 10.584ZM38.5762 7.608H40.6723L43.5523 16.616L46.4963 7.608H48.5283L44.6243 19H42.4003L38.5762 7.608ZM51.4258 7.56V9.352H49.6018V7.56H51.4258ZM51.4258 10.744V19H49.6018V10.744H51.4258ZM58.0851 10.584V12.328C57.7651 12.296 57.5518 12.28 57.4451 12.28C55.8558 12.28 55.0611 13.3093 55.0611 15.368V19H53.2531V10.744H54.9651V12.392C55.5518 11.1653 56.4745 10.552 57.7331 10.552L58.0851 10.584ZM63.0701 10.744V12.072H61.4061V16.424C61.4061 16.68 61.4115 16.8613 61.4221 16.968C61.4328 17.064 61.4648 17.176 61.5181 17.304C61.5715 17.4213 61.6621 17.5013 61.7901 17.544C61.9288 17.5867 62.1155 17.608 62.3501 17.608C62.6488 17.608 62.8888 17.5973 63.0701 17.576V19.016C62.7075 19.0587 62.2968 19.08 61.8381 19.08C61.5181 19.08 61.2355 19.0533 60.9901 19C60.7555 18.9573 60.5581 18.904 60.3981 18.84C60.2381 18.776 60.1048 18.6693 59.9981 18.52C59.8915 18.36 59.8061 18.232 59.7421 18.136C59.6888 18.0293 59.6461 17.848 59.6141 17.592C59.5928 17.336 59.5821 17.144 59.5821 17.016C59.5821 16.8773 59.5821 16.6427 59.5821 16.312C59.5821 16.2693 59.5821 16.2373 59.5821 16.216C59.5821 16.184 59.5821 16.152 59.5821 16.12C59.5821 16.0773 59.5821 16.04 59.5821 16.008V12.072H58.2061V10.744H59.5821V8.264H61.4061V10.744H63.0701ZM71.6143 10.744V19H69.9023V17.768C69.2089 18.7387 68.3023 19.224 67.1823 19.224C66.2756 19.224 65.5769 18.968 65.0863 18.456C64.6063 17.9333 64.3663 17.1867 64.3663 16.216V10.744H66.1903V15.464C66.1903 15.752 66.1956 15.9867 66.2063 16.168C66.2169 16.3387 66.2489 16.536 66.3023 16.76C66.3663 16.9733 66.4516 17.1387 66.5583 17.256C66.6756 17.3733 66.8356 17.4747 67.0383 17.56C67.2516 17.6453 67.5076 17.688 67.8063 17.688C68.4889 17.688 68.9903 17.448 69.3103 16.968C69.6303 16.4773 69.7903 15.8587 69.7903 15.112V10.744H71.6143ZM73.4738 13.288C73.6658 11.4213 74.8711 10.488 77.0898 10.488C78.1244 10.488 78.9458 10.6907 79.5538 11.096C80.1724 11.5013 80.4818 12.1307 80.4818 12.984V17.176C80.4818 17.4107 80.5084 17.5707 80.5618 17.656C80.6258 17.7413 80.7431 17.784 80.9138 17.784C81.0418 17.784 81.1804 17.7733 81.3298 17.752V19.032C80.8604 19.1493 80.4658 19.208 80.1458 19.208C79.3671 19.208 78.9191 18.8773 78.8018 18.216C78.1084 18.8773 77.1431 19.208 75.9058 19.208C75.0524 19.208 74.3751 18.9893 73.8738 18.552C73.3724 18.104 73.1217 17.5013 73.1217 16.744C73.1217 16.5093 73.1484 16.2907 73.2018 16.088C73.2551 15.8853 73.3138 15.7093 73.3778 15.56C73.4524 15.4107 73.5644 15.272 73.7138 15.144C73.8738 15.016 74.0018 14.9093 74.0978 14.824C74.2044 14.7387 74.3698 14.6587 74.5938 14.584C74.8284 14.5093 74.9991 14.456 75.1058 14.424C75.2231 14.3813 75.4204 14.3387 75.6978 14.296C75.9751 14.2533 76.1564 14.2267 76.2418 14.216C76.3378 14.1947 76.5298 14.168 76.8177 14.136C77.4684 14.0507 77.9111 13.9813 78.1458 13.928C78.3804 13.864 78.5404 13.7733 78.6258 13.656C78.7004 13.5707 78.7378 13.3733 78.7378 13.064C78.7378 12.232 78.1724 11.816 77.0418 11.816C76.4444 11.816 76.0071 11.928 75.7298 12.152C75.4524 12.376 75.2764 12.7547 75.2018 13.288H73.4738ZM78.7218 14.856C78.5831 14.9307 78.4231 15 78.2418 15.064C78.0604 15.1173 77.9111 15.1547 77.7938 15.176C77.6871 15.1867 77.5111 15.208 77.2658 15.24C77.0311 15.272 76.8764 15.2933 76.8018 15.304C76.5778 15.336 76.4018 15.368 76.2738 15.4C76.1458 15.4213 75.9858 15.464 75.7938 15.528C75.6124 15.592 75.4684 15.672 75.3618 15.768C75.2658 15.8533 75.1804 15.976 75.1058 16.136C75.0311 16.2853 74.9938 16.4667 74.9938 16.68C74.9938 17.0747 75.1218 17.3787 75.3778 17.592C75.6444 17.8053 76.0124 17.912 76.4818 17.912C77.2924 17.912 77.9164 17.6933 78.3538 17.256C78.5991 17.0107 78.7218 16.536 78.7218 15.832V14.856ZM84.3164 7.608V19H82.5084V7.608H84.3164ZM96.1969 7.592L100.597 19H98.4529L97.3649 15.976H92.8529L91.7329 19H89.6689L94.0689 7.592H96.1969ZM96.8369 14.472L95.1409 9.672L93.3649 14.472H96.8369ZM108.917 15.88C108.789 16.8933 108.383 17.704 107.701 18.312C107.018 18.9093 106.159 19.208 105.125 19.208C103.887 19.208 102.901 18.8187 102.165 18.04C101.429 17.2507 101.061 16.2213 101.061 14.952C101.061 13.5867 101.429 12.504 102.165 11.704C102.911 10.8933 103.914 10.488 105.173 10.488C106.229 10.488 107.077 10.7547 107.717 11.288C108.367 11.8213 108.746 12.5627 108.853 13.512H107.045C106.938 12.9893 106.725 12.5893 106.405 12.312C106.085 12.0347 105.679 11.896 105.189 11.896C104.485 11.896 103.93 12.1627 103.525 12.696C103.119 13.2187 102.917 13.9387 102.917 14.856C102.917 15.7733 103.109 16.488 103.493 17C103.887 17.512 104.431 17.768 105.125 17.768C105.669 17.768 106.111 17.608 106.453 17.288C106.805 16.9573 107.029 16.488 107.125 15.88H108.917ZM117.807 15.88C117.679 16.8933 117.274 17.704 116.591 18.312C115.909 18.9093 115.05 19.208 114.015 19.208C112.778 19.208 111.791 18.8187 111.055 18.04C110.319 17.2507 109.951 16.2213 109.951 14.952C109.951 13.5867 110.319 12.504 111.055 11.704C111.802 10.8933 112.805 10.488 114.063 10.488C115.119 10.488 115.967 10.7547 116.607 11.288C117.258 11.8213 117.637 12.5627 117.743 13.512H115.935C115.829 12.9893 115.615 12.5893 115.295 12.312C114.975 12.0347 114.57 11.896 114.079 11.896C113.375 11.896 112.821 12.1627 112.415 12.696C112.01 13.2187 111.807 13.9387 111.807 14.856C111.807 15.7733 111.999 16.488 112.383 17C112.778 17.512 113.322 17.768 114.015 17.768C114.559 17.768 115.002 17.608 115.343 17.288C115.695 16.9573 115.919 16.488 116.015 15.88H117.807ZM123.034 10.504C124.293 10.504 125.295 10.8987 126.042 11.688C126.789 12.4773 127.162 13.5387 127.162 14.872C127.162 16.216 126.789 17.2827 126.042 18.072C125.306 18.8613 124.303 19.256 123.034 19.256C121.743 19.256 120.719 18.8613 119.962 18.072C119.205 17.2827 118.826 16.216 118.826 14.872C118.826 13.5387 119.205 12.4773 119.962 11.688C120.73 10.8987 121.754 10.504 123.034 10.504ZM124.698 12.728C124.293 12.2053 123.727 11.944 123.002 11.944C122.277 11.944 121.706 12.2053 121.29 12.728C120.874 13.2507 120.666 13.9653 120.666 14.872C120.666 15.8 120.874 16.5253 121.29 17.048C121.706 17.5707 122.282 17.832 123.018 17.832C123.733 17.832 124.293 17.5707 124.698 17.048C125.114 16.5147 125.322 15.784 125.322 14.856C125.322 13.9493 125.114 13.24 124.698 12.728ZM135.942 10.744V19H134.23V17.768C133.537 18.7387 132.63 19.224 131.51 19.224C130.604 19.224 129.905 18.968 129.414 18.456C128.934 17.9333 128.694 17.1867 128.694 16.216V10.744H130.518V15.464C130.518 15.752 130.524 15.9867 130.534 16.168C130.545 16.3387 130.577 16.536 130.63 16.76C130.694 16.9733 130.78 17.1387 130.886 17.256C131.004 17.3733 131.164 17.4747 131.366 17.56C131.58 17.6453 131.836 17.688 132.134 17.688C132.817 17.688 133.318 17.448 133.638 16.968C133.958 16.4773 134.118 15.8587 134.118 15.112V10.744H135.942ZM139.626 10.744V11.96C140.287 11 141.199 10.52 142.362 10.52C143.301 10.52 143.999 10.776 144.458 11.288C144.927 11.8 145.162 12.536 145.162 13.496V19H143.338V14.2C143.338 13.8693 143.322 13.5973 143.29 13.384C143.258 13.16 143.189 12.936 143.082 12.712C142.986 12.488 142.826 12.3227 142.602 12.216C142.378 12.0987 142.09 12.04 141.738 12.04C140.394 12.04 139.722 12.8773 139.722 14.552V19H137.898V10.744H139.626ZM151.101 10.744V12.072H149.437V16.424C149.437 16.68 149.443 16.8613 149.453 16.968C149.464 17.064 149.496 17.176 149.549 17.304C149.603 17.4213 149.693 17.5013 149.821 17.544C149.96 17.5867 150.147 17.608 150.381 17.608C150.68 17.608 150.92 17.5973 151.101 17.576V19.016C150.739 19.0587 150.328 19.08 149.869 19.08C149.549 19.08 149.267 19.0533 149.021 19C148.787 18.9573 148.589 18.904 148.429 18.84C148.269 18.776 148.136 18.6693 148.029 18.52C147.923 18.36 147.837 18.232 147.773 18.136C147.72 18.0293 147.677 17.848 147.645 17.592C147.624 17.336 147.613 17.144 147.613 17.016C147.613 16.8773 147.613 16.6427 147.613 16.312C147.613 16.2693 147.613 16.2373 147.613 16.216C147.613 16.184 147.613 16.152 147.613 16.12C147.613 16.0773 147.613 16.04 147.613 16.008V12.072H146.237V10.744H147.613V8.264H149.437V10.744H151.101ZM158.942 13.144H157.198C157.091 12.2693 156.494 11.832 155.406 11.832C154.936 11.832 154.574 11.9173 154.318 12.088C154.062 12.2587 153.934 12.4933 153.934 12.792C153.934 12.888 153.939 12.9733 153.95 13.048C153.971 13.1227 154.003 13.192 154.046 13.256C154.099 13.3093 154.142 13.3573 154.174 13.4C154.216 13.4427 154.286 13.4853 154.382 13.528C154.478 13.5707 154.552 13.608 154.606 13.64C154.67 13.6613 154.771 13.6933 154.91 13.736C155.048 13.768 155.155 13.7947 155.23 13.816C155.315 13.8373 155.448 13.8693 155.63 13.912C155.811 13.944 155.95 13.9707 156.046 13.992C156.462 14.088 156.76 14.1627 156.942 14.216C157.134 14.2587 157.406 14.3547 157.758 14.504C158.12 14.6427 158.387 14.792 158.558 14.952C158.728 15.1013 158.883 15.3147 159.022 15.592C159.171 15.8587 159.246 16.168 159.246 16.52C159.246 17.352 158.92 18.0133 158.27 18.504C157.619 18.9947 156.744 19.24 155.646 19.24C154.472 19.24 153.571 18.9947 152.942 18.504C152.312 18.0133 151.976 17.2987 151.934 16.36H153.678C153.774 17.3947 154.44 17.912 155.678 17.912C156.211 17.912 156.638 17.8053 156.958 17.592C157.288 17.368 157.454 17.0747 157.454 16.712C157.454 16.5307 157.411 16.376 157.326 16.248C157.251 16.12 157.123 16.0133 156.942 15.928C156.76 15.832 156.584 15.7627 156.414 15.72C156.254 15.6667 156.035 15.608 155.758 15.544C155.715 15.5333 155.683 15.528 155.661 15.528C155.64 15.5173 155.614 15.512 155.582 15.512C155.55 15.5013 155.518 15.4907 155.486 15.48C154.312 15.192 153.566 14.968 153.246 14.808C152.488 14.4453 152.11 13.8427 152.11 13C152.11 12.2213 152.408 11.6133 153.006 11.176C153.603 10.728 154.43 10.504 155.486 10.504C156.499 10.504 157.326 10.7227 157.966 11.16C158.616 11.5973 158.942 12.2587 158.942 13.144Z" fill="black"/>
<line x1="9.00059" y1="44.75" x2="863.001" y2="46.7547" stroke="#E1E1E1" stroke-width="0.5"/>
<line x1="8.99941" y1="121.75" x2="860.999" y2="119.75" stroke="#E1E1E1" stroke-width="0.5"/>
</svg>
