<svg width="20" height="20" viewBox="0 0 20 20" fill="none" xmlns="http://www.w3.org/2000/svg">
<path d="M14.1667 8.33332H15.8334C17.5 8.33332 18.3334 7.49999 18.3334 5.83332V4.16666C18.3334 2.49999 17.5 1.66666 15.8334 1.66666H14.1667C12.5 1.66666 11.6667 2.49999 11.6667 4.16666V5.83332C11.6667 7.49999 12.5 8.33332 14.1667 8.33332Z" stroke="#65717C" stroke-width="1.5" stroke-miterlimit="10" stroke-linecap="round" stroke-linejoin="round"/>
<path d="M4.16669 18.3333H5.83335C7.50002 18.3333 8.33335 17.5 8.33335 15.8333V14.1667C8.33335 12.5 7.50002 11.6667 5.83335 11.6667H4.16669C2.50002 11.6667 1.66669 12.5 1.66669 14.1667V15.8333C1.66669 17.5 2.50002 18.3333 4.16669 18.3333Z" stroke="#65717C" stroke-width="1.5" stroke-miterlimit="10" stroke-linecap="round" stroke-linejoin="round"/>
<path d="M5.00002 8.33332C6.84097 8.33332 8.33335 6.84094 8.33335 4.99999C8.33335 3.15904 6.84097 1.66666 5.00002 1.66666C3.15907 1.66666 1.66669 3.15904 1.66669 4.99999C1.66669 6.84094 3.15907 8.33332 5.00002 8.33332Z" stroke="#65717C" stroke-width="1.5" stroke-miterlimit="10" stroke-linecap="round" stroke-linejoin="round"/>
<path d="M15 18.3333C16.841 18.3333 18.3334 16.8409 18.3334 15C18.3334 13.159 16.841 11.6667 15 11.6667C13.1591 11.6667 11.6667 13.159 11.6667 15C11.6667 16.8409 13.1591 18.3333 15 18.3333Z" stroke="#65717C" stroke-width="1.5" stroke-miterlimit="10" stroke-linecap="round" stroke-linejoin="round"/>
</svg>
