<svg width="229" height="54" viewBox="0 0 229 54" fill="none" xmlns="http://www.w3.org/2000/svg">
<rect x="0.000976562" width="229" height="54" rx="8" fill="#F5F6FA"/>
<path d="M63.9194 10.608V18.624C63.9194 19.8187 63.6207 20.7253 63.0234 21.344C62.4367 21.9627 61.5674 22.272 60.4154 22.272C59.1247 22.272 58.1967 21.9467 57.6314 21.296C57.0767 20.6453 56.7994 19.6907 56.7994 18.432V18H58.7034V18.624C58.7034 19.2747 58.8207 19.776 59.0554 20.128C59.2901 20.4693 59.7221 20.64 60.3514 20.64C60.6394 20.64 60.8847 20.5973 61.0874 20.512C61.2901 20.416 61.4447 20.3093 61.5514 20.192C61.6581 20.064 61.7381 19.888 61.7914 19.664C61.8554 19.44 61.8927 19.2427 61.9034 19.072C61.9141 18.8907 61.9194 18.6507 61.9194 18.352V10.608H63.9194ZM74.3692 10.608V12.336H70.7372V22H68.7372V12.336H65.1052V10.608H74.3692ZM82.1627 10.608V22H80.1467V10.608H82.1627ZM86.0878 13.744V14.96C86.7491 14 87.6611 13.52 88.8238 13.52C89.7625 13.52 90.4611 13.776 90.9198 14.288C91.3891 14.8 91.6238 15.536 91.6238 16.496V22H89.7998V17.2C89.7998 16.8693 89.7838 16.5973 89.7518 16.384C89.7198 16.16 89.6505 15.936 89.5438 15.712C89.4478 15.488 89.2878 15.3227 89.0638 15.216C88.8398 15.0987 88.5518 15.04 88.1998 15.04C86.8558 15.04 86.1838 15.8773 86.1838 17.552V22H84.3598V13.744H86.0878ZM101.355 10.608V22H99.6433V20.864C99.1206 21.7707 98.2406 22.224 97.0033 22.224C95.8406 22.224 94.9126 21.8293 94.2193 21.04C93.5366 20.2507 93.1953 19.1893 93.1953 17.856C93.1953 16.5333 93.5313 15.4827 94.2033 14.704C94.886 13.9147 95.798 13.52 96.9393 13.52C98.102 13.52 98.9766 13.952 99.5633 14.816V10.608H101.355ZM97.2753 14.992C96.582 14.992 96.0326 15.248 95.6273 15.76C95.2326 16.2613 95.0353 16.9493 95.0353 17.824C95.0353 18.7307 95.238 19.4453 95.6433 19.968C96.0593 20.4907 96.6246 20.752 97.3393 20.752C98.054 20.752 98.6086 20.496 99.0033 19.984C99.4086 19.472 99.6113 18.7627 99.6113 17.856C99.6113 16.9493 99.4033 16.2453 98.9873 15.744C98.582 15.2427 98.0113 14.992 97.2753 14.992ZM110.561 13.744V22H108.849V20.768C108.155 21.7387 107.249 22.224 106.129 22.224C105.222 22.224 104.523 21.968 104.033 21.456C103.553 20.9333 103.313 20.1867 103.313 19.216V13.744H105.137V18.464C105.137 18.752 105.142 18.9867 105.153 19.168C105.163 19.3387 105.195 19.536 105.249 19.76C105.313 19.9733 105.398 20.1387 105.505 20.256C105.622 20.3733 105.782 20.4747 105.985 20.56C106.198 20.6453 106.454 20.688 106.753 20.688C107.435 20.688 107.937 20.448 108.257 19.968C108.577 19.4773 108.737 18.8587 108.737 18.112V13.744H110.561ZM119.044 16.144H117.3C117.193 15.2693 116.596 14.832 115.508 14.832C115.039 14.832 114.676 14.9173 114.42 15.088C114.164 15.2587 114.036 15.4933 114.036 15.792C114.036 15.888 114.041 15.9733 114.052 16.048C114.073 16.1227 114.105 16.192 114.148 16.256C114.201 16.3093 114.244 16.3573 114.276 16.4C114.319 16.4427 114.388 16.4853 114.484 16.528C114.58 16.5707 114.655 16.608 114.708 16.64C114.772 16.6613 114.873 16.6933 115.012 16.736C115.151 16.768 115.257 16.7947 115.332 16.816C115.417 16.8373 115.551 16.8693 115.732 16.912C115.913 16.944 116.052 16.9707 116.148 16.992C116.564 17.088 116.863 17.1627 117.044 17.216C117.236 17.2587 117.508 17.3547 117.86 17.504C118.223 17.6427 118.489 17.792 118.66 17.952C118.831 18.1013 118.985 18.3147 119.124 18.592C119.273 18.8587 119.348 19.168 119.348 19.52C119.348 20.352 119.023 21.0133 118.372 21.504C117.721 21.9947 116.847 22.24 115.748 22.24C114.575 22.24 113.673 21.9947 113.044 21.504C112.415 21.0133 112.079 20.2987 112.036 19.36H113.78C113.876 20.3947 114.543 20.912 115.78 20.912C116.313 20.912 116.74 20.8053 117.06 20.592C117.391 20.368 117.556 20.0747 117.556 19.712C117.556 19.5307 117.513 19.376 117.428 19.248C117.353 19.12 117.225 19.0133 117.044 18.928C116.863 18.832 116.687 18.7627 116.516 18.72C116.356 18.6667 116.137 18.608 115.86 18.544C115.817 18.5333 115.785 18.528 115.764 18.528C115.743 18.5173 115.716 18.512 115.684 18.512C115.652 18.5013 115.62 18.4907 115.588 18.48C114.415 18.192 113.668 17.968 113.348 17.808C112.591 17.4453 112.212 16.8427 112.212 16C112.212 15.2213 112.511 14.6133 113.108 14.176C113.705 13.728 114.532 13.504 115.588 13.504C116.601 13.504 117.428 13.7227 118.068 14.16C118.719 14.5973 119.044 15.2587 119.044 16.144ZM124.829 13.744V15.072H123.165V19.424C123.165 19.68 123.17 19.8613 123.181 19.968C123.192 20.064 123.224 20.176 123.277 20.304C123.33 20.4213 123.421 20.5013 123.549 20.544C123.688 20.5867 123.874 20.608 124.109 20.608C124.408 20.608 124.648 20.5973 124.829 20.576V22.016C124.466 22.0587 124.056 22.08 123.597 22.08C123.277 22.08 122.994 22.0533 122.749 22C122.514 21.9573 122.317 21.904 122.157 21.84C121.997 21.776 121.864 21.6693 121.757 21.52C121.65 21.36 121.565 21.232 121.501 21.136C121.448 21.0293 121.405 20.848 121.373 20.592C121.352 20.336 121.341 20.144 121.341 20.016C121.341 19.8773 121.341 19.6427 121.341 19.312C121.341 19.2693 121.341 19.2373 121.341 19.216C121.341 19.184 121.341 19.152 121.341 19.12C121.341 19.0773 121.341 19.04 121.341 19.008V15.072H119.965V13.744H121.341V11.264H123.165V13.744H124.829ZM130.797 13.584V15.328C130.477 15.296 130.264 15.28 130.157 15.28C128.568 15.28 127.773 16.3093 127.773 18.368V22H125.965V13.744H127.677V15.392C128.264 14.1653 129.186 13.552 130.445 13.552L130.797 13.584ZM139.03 13.744L135.974 21.84C135.942 21.9147 135.883 22.0693 135.798 22.304C135.713 22.5493 135.654 22.7147 135.622 22.8C135.59 22.8853 135.526 23.0347 135.43 23.248C135.345 23.4613 135.275 23.6107 135.222 23.696C135.169 23.7813 135.089 23.9093 134.982 24.08C134.875 24.2507 134.774 24.3733 134.678 24.448C134.593 24.5227 134.481 24.6133 134.342 24.72C134.214 24.8373 134.081 24.9173 133.942 24.96C133.803 25.0133 133.643 25.056 133.462 25.088C133.291 25.1307 133.105 25.152 132.902 25.152C132.561 25.152 132.139 25.12 131.638 25.056V23.52C132.022 23.5947 132.342 23.632 132.598 23.632C132.726 23.632 132.843 23.6107 132.95 23.568C133.057 23.536 133.153 23.472 133.238 23.376C133.323 23.2907 133.398 23.2053 133.462 23.12C133.526 23.0453 133.585 22.9333 133.638 22.784C133.702 22.6453 133.75 22.5333 133.782 22.448C133.814 22.3733 133.857 22.2507 133.91 22.08C133.963 21.9093 133.995 21.8027 134.006 21.76L130.838 13.744H132.838L135.046 19.824L137.126 13.744H139.03ZM152.532 20.272V22H144.724V10.608H146.74V20.272H152.532ZM155.56 10.56V12.352H153.736V10.56H155.56ZM155.56 13.744V22H153.736V13.744H155.56ZM159.291 13.744V14.912C159.974 13.984 160.838 13.52 161.883 13.52C162.427 13.52 162.896 13.6427 163.291 13.888C163.696 14.1333 163.995 14.48 164.187 14.928C164.848 13.9893 165.739 13.52 166.859 13.52C167.638 13.52 168.283 13.7547 168.795 14.224C169.307 14.6827 169.563 15.3227 169.563 16.144V22H167.739V16.928C167.739 16.3413 167.638 15.8827 167.435 15.552C167.232 15.2213 166.843 15.056 166.267 15.056C165.68 15.056 165.232 15.2427 164.923 15.616C164.614 15.9787 164.459 16.4907 164.459 17.152V22H162.635V16.832C162.635 16.2453 162.544 15.8027 162.363 15.504C162.192 15.2053 161.83 15.056 161.275 15.056C160.656 15.056 160.187 15.2587 159.867 15.664C159.547 16.0587 159.387 16.5867 159.387 17.248V22H157.563V13.744H159.291ZM173.341 10.56V12.352H171.517V10.56H173.341ZM173.341 13.744V22H171.517V13.744H173.341ZM179.36 13.744V15.072H177.696V19.424C177.696 19.68 177.701 19.8613 177.712 19.968C177.723 20.064 177.755 20.176 177.808 20.304C177.861 20.4213 177.952 20.5013 178.08 20.544C178.219 20.5867 178.405 20.608 178.64 20.608C178.939 20.608 179.179 20.5973 179.36 20.576V22.016C178.997 22.0587 178.587 22.08 178.128 22.08C177.808 22.08 177.525 22.0533 177.28 22C177.045 21.9573 176.848 21.904 176.688 21.84C176.528 21.776 176.395 21.6693 176.288 21.52C176.181 21.36 176.096 21.232 176.032 21.136C175.979 21.0293 175.936 20.848 175.904 20.592C175.883 20.336 175.872 20.144 175.872 20.016C175.872 19.8773 175.872 19.6427 175.872 19.312C175.872 19.2693 175.872 19.2373 175.872 19.216C175.872 19.184 175.872 19.152 175.872 19.12C175.872 19.0773 175.872 19.04 175.872 19.008V15.072H174.496V13.744H175.872V11.264H177.696V13.744H179.36ZM183.008 19.84V22H180.832V19.84H183.008ZM187.461 19.84V22H185.285V19.84H187.461Z" fill="black"/>
<path d="M61.316 33.456V39.372C61.316 39.804 61.276 40.18 61.196 40.5C61.124 40.82 61 41.116 60.824 41.388C60.648 41.652 60.396 41.856 60.068 42C59.74 42.136 59.336 42.204 58.856 42.204C57.952 42.204 57.3 41.98 56.9 41.532C56.5 41.084 56.3 40.412 56.3 39.516C56.3 39.404 56.304 39.296 56.312 39.192H57.404V39.492C57.404 40.068 57.5 40.508 57.692 40.812C57.892 41.116 58.276 41.268 58.844 41.268C59.1 41.268 59.312 41.228 59.48 41.148C59.656 41.068 59.788 40.976 59.876 40.872C59.972 40.76 60.044 40.604 60.092 40.404C60.14 40.204 60.168 40.028 60.176 39.876C60.184 39.724 60.188 39.52 60.188 39.264V33.456H61.316ZM68.4747 41.184V41.976C68.2667 42.056 68.0347 42.096 67.7787 42.096C67.1947 42.096 66.8947 41.792 66.8787 41.184C66.2947 41.84 65.5467 42.168 64.6347 42.168C64.0267 42.168 63.5427 42.012 63.1827 41.7C62.8307 41.388 62.6547 40.96 62.6547 40.416C62.6547 39.312 63.3867 38.668 64.8507 38.484C64.9467 38.468 65.0867 38.452 65.2707 38.436C65.9667 38.356 66.3947 38.264 66.5547 38.16C66.7387 38.032 66.8307 37.812 66.8307 37.5C66.8307 36.82 66.3627 36.48 65.4267 36.48C64.9467 36.48 64.5827 36.58 64.3347 36.78C64.0867 36.972 63.9387 37.292 63.8907 37.74H62.8947C62.9107 37.076 63.1467 36.56 63.6027 36.192C64.0587 35.824 64.6867 35.64 65.4867 35.64C66.3587 35.64 67.0067 35.84 67.4307 36.24C67.5667 36.368 67.6667 36.536 67.7307 36.744C67.7947 36.952 67.8307 37.124 67.8387 37.26C67.8467 37.388 67.8507 37.584 67.8507 37.848C67.8507 38.152 67.8427 38.612 67.8267 39.228C67.8107 39.844 67.8027 40.304 67.8027 40.608C67.8027 40.832 67.8307 40.992 67.8867 41.088C67.9507 41.176 68.0627 41.22 68.2227 41.22C68.2867 41.22 68.3707 41.208 68.4747 41.184ZM66.8307 38.784C66.7587 38.84 66.6827 38.888 66.6027 38.928C66.5227 38.968 66.4187 39 66.2907 39.024C66.1707 39.048 66.0867 39.068 66.0387 39.084C65.9987 39.092 65.8947 39.108 65.7267 39.132C65.5587 39.148 65.4707 39.156 65.4627 39.156C65.2147 39.188 65.0507 39.212 64.9707 39.228C64.8987 39.236 64.7547 39.268 64.5387 39.324C64.3307 39.38 64.1827 39.444 64.0947 39.516C64.0067 39.588 63.9187 39.696 63.8307 39.84C63.7507 39.976 63.7107 40.14 63.7107 40.332C63.7107 40.652 63.8187 40.904 64.0347 41.088C64.2587 41.272 64.5627 41.364 64.9467 41.364C65.4347 41.364 65.8707 41.22 66.2547 40.932C66.6387 40.644 66.8307 40.304 66.8307 39.912V38.784ZM70.396 35.808V36.708C70.668 36.34 70.96 36.072 71.272 35.904C71.584 35.736 71.964 35.652 72.412 35.652C73.26 35.652 73.832 36.008 74.128 36.72C74.664 36 75.348 35.64 76.18 35.64C76.82 35.64 77.304 35.82 77.632 36.18C77.968 36.532 78.136 37.028 78.136 37.668V42H77.116V38.1C77.116 37.588 77.036 37.204 76.876 36.948C76.716 36.684 76.384 36.552 75.88 36.552C74.824 36.552 74.296 37.196 74.296 38.484V42H73.276V38.028C73.276 37.556 73.196 37.196 73.036 36.948C72.884 36.692 72.584 36.564 72.136 36.564C71.504 36.564 71.064 36.76 70.816 37.152C70.576 37.536 70.456 38.06 70.456 38.724V42H69.436V35.808H70.396ZM84.9584 40.044C84.6464 41.484 83.7464 42.204 82.2584 42.204C81.3464 42.204 80.6304 41.92 80.1104 41.352C79.5984 40.784 79.3424 39.996 79.3424 38.988C79.3424 37.988 79.6064 37.18 80.1344 36.564C80.6704 35.94 81.3664 35.628 82.2224 35.628C83.1744 35.628 83.8784 35.952 84.3344 36.6C84.7984 37.24 85.0304 38.052 85.0304 39.036V39.18H80.3744L80.3624 39.252C80.3624 39.908 80.5344 40.424 80.8784 40.8C81.2224 41.176 81.6944 41.364 82.2944 41.364C82.7424 41.364 83.0944 41.26 83.3504 41.052C83.6144 40.844 83.8184 40.508 83.9624 40.044H84.9584ZM83.9744 38.352C83.9264 37.76 83.7464 37.3 83.4344 36.972C83.1224 36.636 82.7104 36.468 82.1984 36.468C81.7024 36.468 81.2904 36.636 80.9624 36.972C80.6344 37.308 80.4384 37.768 80.3744 38.352H83.9744ZM90.7078 37.608H89.6878C89.6238 36.856 89.1198 36.48 88.1758 36.48C87.7838 36.48 87.4758 36.556 87.2518 36.708C87.0278 36.86 86.9158 37.064 86.9158 37.32C86.9158 37.392 86.9238 37.464 86.9398 37.536C86.9558 37.6 86.9838 37.66 87.0238 37.716C87.0718 37.764 87.1118 37.808 87.1438 37.848C87.1838 37.888 87.2438 37.928 87.3238 37.968C87.4118 38 87.4758 38.028 87.5158 38.052C87.5638 38.076 87.6438 38.104 87.7558 38.136C87.8758 38.16 87.9598 38.18 88.0078 38.196C88.0558 38.204 88.1478 38.224 88.2838 38.256C88.4278 38.288 88.5198 38.308 88.5598 38.316C88.8558 38.38 89.0758 38.432 89.2198 38.472C89.3718 38.512 89.5758 38.588 89.8318 38.7C90.0958 38.804 90.2958 38.916 90.4318 39.036C90.5678 39.148 90.6878 39.308 90.7918 39.516C90.9038 39.716 90.9598 39.944 90.9598 40.2C90.9598 40.8 90.7238 41.284 90.2518 41.652C89.7878 42.012 89.1678 42.192 88.3918 42.192C87.5518 42.192 86.9038 42.008 86.4478 41.64C85.9998 41.272 85.7598 40.74 85.7278 40.044H86.7358C86.7918 40.916 87.3518 41.352 88.4158 41.352C88.8718 41.352 89.2358 41.26 89.5078 41.076C89.7878 40.884 89.9278 40.632 89.9278 40.32C89.9278 40.112 89.8558 39.94 89.7118 39.804C89.5678 39.668 89.4078 39.572 89.2318 39.516C89.0558 39.452 88.8038 39.38 88.4758 39.3C88.4278 39.292 88.3918 39.284 88.3678 39.276C88.2958 39.26 88.1398 39.228 87.8998 39.18C87.6678 39.124 87.4998 39.08 87.3958 39.048C87.2918 39.016 87.1398 38.968 86.9398 38.904C86.7478 38.832 86.6038 38.76 86.5078 38.688C86.4118 38.608 86.3038 38.512 86.1838 38.4C86.0718 38.28 85.9918 38.144 85.9438 37.992C85.8958 37.832 85.8718 37.652 85.8718 37.452C85.8718 36.892 86.0838 36.448 86.5078 36.12C86.9398 35.792 87.5158 35.628 88.2358 35.628C88.9638 35.628 89.5558 35.8 90.0118 36.144C90.4758 36.488 90.7078 36.976 90.7078 37.608ZM98.2198 33.456V34.44H95.3518V42H94.2238V34.44H91.3558V33.456H98.2198ZM106.646 40.572L106.898 40.92C106.282 41.376 105.69 41.704 105.122 41.904C104.554 42.104 103.93 42.204 103.25 42.204C101.946 42.204 100.846 41.804 99.9504 41.004C99.0544 40.204 98.6064 39.156 98.6064 37.86C98.6064 36.556 99.0704 35.464 99.9984 34.584C100.926 33.696 102.078 33.252 103.454 33.252C104.63 33.252 105.59 33.584 106.334 34.248C107.086 34.912 107.462 35.772 107.462 36.828C107.462 37.676 107.218 38.416 106.73 39.048C106.242 39.672 105.674 39.984 105.026 39.984C104.746 39.984 104.518 39.904 104.342 39.744C104.174 39.584 104.09 39.38 104.09 39.132C104.09 39.028 104.11 38.896 104.15 38.736C103.742 39.568 103.17 39.984 102.434 39.984C101.954 39.984 101.566 39.82 101.27 39.492C100.974 39.156 100.826 38.72 100.826 38.184C100.826 37.4 101.062 36.72 101.534 36.144C102.014 35.56 102.57 35.268 103.202 35.268C103.994 35.268 104.474 35.628 104.642 36.348L104.894 35.448H105.59L104.882 37.836C104.722 38.388 104.642 38.764 104.642 38.964C104.642 39.124 104.69 39.252 104.786 39.348C104.89 39.436 105.03 39.48 105.206 39.48C105.662 39.48 106.07 39.208 106.43 38.664C106.798 38.112 106.982 37.492 106.982 36.804C106.982 35.884 106.654 35.14 105.998 34.572C105.342 34.004 104.49 33.72 103.442 33.72C102.202 33.72 101.166 34.116 100.334 34.908C99.5024 35.7 99.0864 36.688 99.0864 37.872C99.0864 39.032 99.4904 39.968 100.298 40.68C101.106 41.384 102.098 41.736 103.274 41.736C103.906 41.736 104.482 41.64 105.002 41.448C105.53 41.256 106.078 40.964 106.646 40.572ZM104.318 36.84C104.318 36.52 104.23 36.26 104.054 36.06C103.878 35.86 103.642 35.76 103.346 35.76C102.858 35.76 102.45 36.036 102.122 36.588C101.802 37.132 101.642 37.668 101.642 38.196C101.642 38.588 101.73 38.9 101.906 39.132C102.082 39.364 102.322 39.48 102.626 39.48C103.122 39.48 103.526 39.176 103.838 38.568C104.158 37.96 104.318 37.384 104.318 36.84ZM113.964 35.808V41.328C113.964 41.864 113.936 42.276 113.88 42.564C113.824 42.86 113.72 43.136 113.568 43.392C113.112 44.144 112.296 44.52 111.12 44.52C110.424 44.52 109.836 44.376 109.356 44.088C108.876 43.808 108.596 43.344 108.516 42.696H109.56C109.68 43.384 110.212 43.728 111.156 43.728C111.788 43.728 112.244 43.568 112.524 43.248C112.812 42.928 112.964 42.412 112.98 41.7L112.992 40.944C112.6 41.696 111.944 42.072 111.024 42.072C110.192 42.072 109.528 41.788 109.032 41.22C108.544 40.652 108.3 39.888 108.3 38.928C108.3 38.024 108.544 37.252 109.032 36.612C109.52 35.964 110.2 35.64 111.072 35.64C111.504 35.64 111.888 35.732 112.224 35.916C112.568 36.1 112.836 36.364 113.028 36.708V35.808H113.964ZM111.12 36.528C110.568 36.528 110.132 36.744 109.812 37.176C109.5 37.6 109.344 38.188 109.344 38.94C109.344 39.62 109.508 40.168 109.836 40.584C110.164 40.992 110.6 41.196 111.144 41.196C111.712 41.196 112.156 40.98 112.476 40.548C112.804 40.116 112.968 39.524 112.968 38.772C112.968 38.068 112.804 37.52 112.476 37.128C112.156 36.728 111.704 36.528 111.12 36.528ZM116.451 35.808V36.708C116.723 36.34 117.015 36.072 117.327 35.904C117.639 35.736 118.019 35.652 118.467 35.652C119.315 35.652 119.887 36.008 120.183 36.72C120.719 36 121.403 35.64 122.235 35.64C122.875 35.64 123.359 35.82 123.687 36.18C124.023 36.532 124.191 37.028 124.191 37.668V42H123.171V38.1C123.171 37.588 123.091 37.204 122.931 36.948C122.771 36.684 122.439 36.552 121.935 36.552C120.879 36.552 120.351 37.196 120.351 38.484V42H119.331V38.028C119.331 37.556 119.251 37.196 119.091 36.948C118.939 36.692 118.639 36.564 118.191 36.564C117.559 36.564 117.119 36.76 116.871 37.152C116.631 37.536 116.511 38.06 116.511 38.724V42H115.491V35.808H116.451ZM131.205 41.184V41.976C130.997 42.056 130.765 42.096 130.509 42.096C129.925 42.096 129.625 41.792 129.609 41.184C129.025 41.84 128.277 42.168 127.365 42.168C126.757 42.168 126.273 42.012 125.913 41.7C125.561 41.388 125.385 40.96 125.385 40.416C125.385 39.312 126.117 38.668 127.581 38.484C127.677 38.468 127.817 38.452 128.001 38.436C128.697 38.356 129.125 38.264 129.285 38.16C129.469 38.032 129.561 37.812 129.561 37.5C129.561 36.82 129.093 36.48 128.157 36.48C127.677 36.48 127.313 36.58 127.065 36.78C126.817 36.972 126.669 37.292 126.621 37.74H125.625C125.641 37.076 125.877 36.56 126.333 36.192C126.789 35.824 127.417 35.64 128.217 35.64C129.089 35.64 129.737 35.84 130.161 36.24C130.297 36.368 130.397 36.536 130.461 36.744C130.525 36.952 130.561 37.124 130.569 37.26C130.577 37.388 130.581 37.584 130.581 37.848C130.581 38.152 130.573 38.612 130.557 39.228C130.541 39.844 130.533 40.304 130.533 40.608C130.533 40.832 130.561 40.992 130.617 41.088C130.681 41.176 130.793 41.22 130.953 41.22C131.017 41.22 131.101 41.208 131.205 41.184ZM129.561 38.784C129.489 38.84 129.413 38.888 129.333 38.928C129.253 38.968 129.149 39 129.021 39.024C128.901 39.048 128.817 39.068 128.769 39.084C128.729 39.092 128.625 39.108 128.457 39.132C128.289 39.148 128.201 39.156 128.193 39.156C127.945 39.188 127.781 39.212 127.701 39.228C127.629 39.236 127.485 39.268 127.269 39.324C127.061 39.38 126.913 39.444 126.825 39.516C126.737 39.588 126.649 39.696 126.561 39.84C126.481 39.976 126.441 40.14 126.441 40.332C126.441 40.652 126.549 40.904 126.765 41.088C126.989 41.272 127.293 41.364 127.677 41.364C128.165 41.364 128.601 41.22 128.985 40.932C129.369 40.644 129.561 40.304 129.561 39.912V38.784ZM133.246 33.456V34.704H132.214V33.456H133.246ZM133.246 35.808V42H132.214V35.808H133.246ZM135.907 33.456V42H134.875V33.456H135.907ZM139.047 40.668V42H137.715V40.668H139.047ZM146.155 39.744C146.067 40.488 145.783 41.08 145.303 41.52C144.831 41.96 144.215 42.18 143.455 42.18C142.519 42.18 141.795 41.892 141.283 41.316C140.771 40.732 140.515 39.956 140.515 38.988C140.515 37.956 140.783 37.14 141.319 36.54C141.855 35.932 142.579 35.628 143.491 35.628C144.251 35.628 144.859 35.82 145.315 36.204C145.771 36.58 146.039 37.12 146.119 37.824H145.063C144.879 36.928 144.359 36.48 143.503 36.48C142.911 36.48 142.443 36.7 142.099 37.14C141.755 37.572 141.583 38.16 141.583 38.904C141.583 39.656 141.747 40.248 142.075 40.68C142.403 41.112 142.855 41.328 143.431 41.328C143.895 41.328 144.271 41.192 144.559 40.92C144.855 40.648 145.043 40.256 145.123 39.744H146.155ZM147.764 36.516C148.308 35.924 149.048 35.628 149.984 35.628C150.92 35.628 151.648 35.912 152.168 36.48C152.688 37.048 152.948 37.844 152.948 38.868C152.948 39.916 152.688 40.732 152.168 41.316C151.648 41.9 150.916 42.192 149.972 42.192C149.028 42.192 148.288 41.904 147.752 41.328C147.216 40.752 146.948 39.952 146.948 38.928C146.948 37.912 147.22 37.108 147.764 36.516ZM151.376 37.14C151.032 36.7 150.56 36.48 149.96 36.48C149.36 36.48 148.884 36.7 148.532 37.14C148.18 37.58 148.004 38.168 148.004 38.904C148.004 39.664 148.176 40.26 148.52 40.692C148.872 41.116 149.36 41.328 149.984 41.328C150.584 41.328 151.052 41.112 151.388 40.68C151.732 40.248 151.904 39.652 151.904 38.892C151.904 38.156 151.728 37.572 151.376 37.14ZM155.123 35.808V36.708C155.395 36.34 155.687 36.072 155.999 35.904C156.311 35.736 156.691 35.652 157.139 35.652C157.987 35.652 158.559 36.008 158.855 36.72C159.391 36 160.075 35.64 160.907 35.64C161.547 35.64 162.031 35.82 162.359 36.18C162.695 36.532 162.863 37.028 162.863 37.668V42H161.843V38.1C161.843 37.588 161.763 37.204 161.603 36.948C161.443 36.684 161.111 36.552 160.607 36.552C159.551 36.552 159.023 37.196 159.023 38.484V42H158.003V38.028C158.003 37.556 157.923 37.196 157.763 36.948C157.611 36.692 157.311 36.564 156.863 36.564C156.231 36.564 155.791 36.76 155.543 37.152C155.303 37.536 155.183 38.06 155.183 38.724V42H154.163V35.808H155.123Z" fill="#65717C"/>
<path d="M214.281 24.9667L209.934 29.3133C209.421 29.8267 208.581 29.8267 208.068 29.3133L203.721 24.9667" stroke="#292D32" stroke-width="1.5" stroke-miterlimit="10" stroke-linecap="round" stroke-linejoin="round"/>
<circle cx="28.001" cy="27" r="16" fill="#5444F2"/>
<path d="M26.089 19.608V27.496C26.089 28.072 26.0356 28.5733 25.929 29C25.833 29.4267 25.6676 29.8213 25.433 30.184C25.1983 30.536 24.8623 30.808 24.425 31C23.9876 31.1813 23.449 31.272 22.809 31.272C21.6036 31.272 20.7343 30.9733 20.201 30.376C19.6676 29.7787 19.401 28.8827 19.401 27.688C19.401 27.5387 19.4063 27.3947 19.417 27.256H20.873V27.656C20.873 28.424 21.001 29.0107 21.257 29.416C21.5236 29.8213 22.0356 30.024 22.793 30.024C23.1343 30.024 23.417 29.9707 23.641 29.864C23.8756 29.7573 24.0516 29.6347 24.169 29.496C24.297 29.3467 24.393 29.1387 24.457 28.872C24.521 28.6053 24.5583 28.3707 24.569 28.168C24.5796 27.9653 24.585 27.6933 24.585 27.352V19.608H26.089ZM36.4659 19.608V20.92H32.6419V31H31.1379V20.92H27.3139V19.608H36.4659Z" fill="white"/>
</svg>
