<svg id="svg" version="1.1" xmlns="http://www.w3.org/2000/svg" xmlns:xlink="http://www.w3.org/1999/xlink" width="400" height="400" viewBox="0, 0, 400,400"><g id="svgg"><path id="path0" d="M91.900 7.164 C 91.735 11.214,91.622 17.064,91.649 20.164 L 91.698 25.800 92.213 23.200 L 92.728 20.600 92.490 23.800 C 92.359 25.560,92.240 29.616,92.226 32.814 C 92.188 41.328,92.505 41.600,102.484 41.600 L 108.275 41.600 108.524 48.217 C 108.772 54.833,109.147 56.627,110.400 57.201 C 110.730 57.352,111.403 57.684,111.895 57.938 C 112.462 58.231,115.134 58.400,119.201 58.400 L 125.613 58.400 125.350 63.317 C 124.913 71.487,125.662 74.400,128.200 74.400 C 128.750 74.400,129.200 74.580,129.200 74.800 C 129.200 75.049,131.533 75.200,135.400 75.200 L 141.600 75.200 141.657 77.700 C 141.711 80.068,141.730 80.115,142.028 78.600 C 142.208 77.686,142.257 79.399,142.141 82.600 C 141.821 91.483,141.946 91.600,151.726 91.600 L 158.291 91.600 158.481 98.506 C 158.756 108.500,158.592 108.346,169.040 108.419 L 176.015 108.467 175.712 111.134 C 174.806 119.088,175.422 124.400,177.249 124.400 C 177.662 124.400,178.000 124.580,178.000 124.800 C 178.000 125.051,180.533 125.200,184.800 125.200 L 191.600 125.200 191.647 129.300 C 191.681 132.213,191.790 133.053,192.023 132.200 C 192.217 131.491,192.262 132.719,192.134 135.205 C 191.806 141.580,191.492 141.366,201.397 141.531 L 209.267 141.662 208.933 143.731 C 208.750 144.869,208.604 148.187,208.608 151.104 C 208.619 158.612,208.347 158.400,217.983 158.400 L 225.200 158.400 225.228 160.500 C 225.249 162.059,225.346 162.394,225.606 161.800 C 225.817 161.319,225.845 162.196,225.678 164.000 C 224.751 174.005,225.246 175.176,230.414 175.191 C 233.383 175.200,233.439 175.219,234.191 176.493 C 235.375 178.496,237.982 181.156,239.818 182.232 L 241.482 183.207 241.715 186.503 C 241.998 190.512,242.217 191.139,243.444 191.447 L 244.400 191.687 244.400 200.000 L 244.400 208.313 243.444 208.553 C 242.217 208.861,241.998 209.488,241.715 213.497 L 241.482 216.793 239.841 217.764 C 237.973 218.869,235.799 221.059,234.248 223.400 L 233.188 225.000 234.094 225.244 C 234.592 225.377,233.200 225.405,231.000 225.305 C 225.034 225.033,224.720 225.664,225.678 236.000 C 225.845 237.804,225.817 238.681,225.606 238.200 C 225.346 237.606,225.249 237.941,225.228 239.500 L 225.200 241.600 220.700 241.640 C 217.642 241.667,216.520 241.790,217.200 242.023 C 217.813 242.233,216.725 242.279,214.394 242.142 C 209.014 241.827,208.794 242.035,208.504 247.703 C 208.374 250.251,208.482 253.192,208.772 254.987 C 209.430 259.065,209.109 259.417,205.332 258.759 C 203.691 258.473,200.830 258.378,198.024 258.516 C 191.917 258.817,191.831 258.910,192.134 264.795 C 192.262 267.281,192.217 268.509,192.023 267.800 C 191.751 266.804,191.313 274.230,191.556 275.712 C 191.585 275.883,190.391 275.885,188.904 275.716 C 183.576 275.110,176.911 275.318,176.114 276.114 C 175.318 276.911,175.110 283.576,175.716 288.904 C 175.885 290.391,175.883 291.585,175.712 291.556 C 174.146 291.299,169.201 291.753,170.600 292.025 C 171.513 292.203,169.966 292.250,167.000 292.134 C 158.717 291.812,158.748 291.778,158.482 301.441 L 158.294 308.294 151.441 308.482 C 141.750 308.749,141.819 308.684,142.138 317.200 C 142.253 320.284,142.206 321.914,142.027 321.000 C 141.757 319.622,141.706 319.834,141.657 322.524 C 141.604 325.421,142.316 326.807,142.454 324.076 C 142.504 323.102,142.526 323.087,142.685 323.922 C 143.005 325.593,142.319 325.895,139.110 325.496 C 135.997 325.109,128.265 325.301,127.089 325.795 C 125.612 326.416,125.400 327.571,125.400 335.000 L 125.400 342.200 118.114 342.200 C 108.480 342.200,108.056 342.762,108.476 355.000 L 108.600 358.600 101.911 358.673 C 91.810 358.783,91.892 358.690,92.164 369.600 C 92.262 373.504,92.196 376.069,92.017 375.400 C 91.581 373.775,91.516 383.414,91.900 392.836 L 92.200 400.200 92.419 395.200 L 92.638 390.200 92.719 395.100 L 92.800 400.000 117.200 400.000 L 141.600 400.000 141.600 395.800 L 141.600 391.600 147.776 391.600 C 151.463 391.600,154.052 391.439,154.200 391.200 C 154.336 390.980,154.890 390.800,155.430 390.800 C 156.176 390.800,156.580 390.438,157.106 389.300 C 157.488 388.475,157.935 387.740,158.100 387.667 C 158.265 387.593,158.400 384.758,158.400 381.367 L 158.400 375.200 164.000 375.200 C 167.080 375.200,169.600 375.040,169.600 374.845 C 169.600 374.649,170.275 374.364,171.100 374.211 C 173.086 373.842,173.886 373.057,174.206 371.164 C 174.351 370.304,174.634 369.600,174.835 369.600 C 175.038 369.600,175.200 367.107,175.200 364.000 L 175.200 358.400 180.400 358.400 C 183.260 358.400,185.600 358.244,185.600 358.053 C 185.600 357.862,186.346 357.605,187.259 357.483 C 190.494 357.049,191.600 354.226,191.600 346.403 L 191.600 341.646 196.500 341.459 C 205.756 341.107,207.600 340.135,207.600 335.613 C 207.600 334.946,207.780 334.400,208.000 334.400 C 208.243 334.400,208.400 332.600,208.400 329.800 L 208.400 325.200 212.600 325.200 C 214.910 325.200,216.800 325.057,216.800 324.881 C 216.800 324.706,217.999 324.357,219.464 324.106 C 222.851 323.526,223.526 322.851,224.106 319.464 C 224.357 317.999,224.706 316.800,224.881 316.800 C 225.057 316.800,225.200 314.910,225.200 312.600 L 225.200 308.400 228.200 308.400 C 229.850 308.400,231.200 308.246,231.200 308.058 C 231.200 307.870,232.458 307.611,233.996 307.482 C 239.932 306.984,240.805 305.566,241.457 295.371 L 241.689 291.741 245.945 291.251 C 248.285 290.981,250.952 290.670,251.871 290.560 C 255.774 290.092,257.101 287.999,257.489 281.700 C 257.615 279.665,257.871 278.000,258.059 278.000 C 258.246 278.000,258.400 277.447,258.400 276.771 C 258.400 274.904,259.059 274.556,263.180 274.245 C 272.618 273.532,273.579 272.558,274.249 263.027 C 274.397 260.922,274.672 259.200,274.859 259.200 C 275.047 259.200,275.200 258.870,275.200 258.467 C 275.200 257.824,275.786 257.677,280.024 257.263 C 288.667 256.417,290.179 254.820,290.689 246.006 C 290.983 240.913,291.066 240.812,295.318 240.353 C 303.911 239.425,306.005 237.398,306.903 229.139 C 307.208 226.333,307.485 225.200,307.866 225.200 C 308.599 225.200,308.667 176.156,307.934 175.911 C 307.660 175.820,307.259 173.924,306.962 171.317 C 305.951 162.451,303.731 160.273,295.137 159.712 C 290.939 159.438,290.961 159.467,290.611 153.698 C 290.092 145.116,288.649 143.606,280.144 142.744 C 274.682 142.190,274.400 142.012,274.400 139.118 C 274.400 127.879,272.092 125.600,260.710 125.600 L 258.400 125.600 258.400 124.224 C 258.400 123.467,258.246 122.752,258.059 122.636 C 257.871 122.520,257.616 120.665,257.492 118.513 C 257.023 110.363,256.100 109.589,246.100 108.964 L 241.600 108.683 241.600 106.611 C 241.600 102.925,240.440 95.874,239.657 94.800 C 238.459 93.157,236.984 92.729,230.949 92.275 L 225.200 91.843 225.200 88.121 C 225.200 86.075,225.046 84.400,224.858 84.400 C 224.670 84.400,224.406 83.222,224.271 81.782 C 223.780 76.524,223.077 76.067,214.569 75.485 L 208.447 75.066 208.271 70.833 C 207.823 60.061,207.174 59.229,199.000 58.937 C 196.360 58.843,193.615 58.675,192.900 58.565 L 191.600 58.364 191.600 54.002 C 191.600 49.757,191.177 46.514,190.337 44.326 C 189.727 42.737,188.110 42.339,181.300 42.104 L 175.200 41.893 175.200 36.546 C 175.200 33.606,175.043 31.200,174.852 31.200 C 174.661 31.200,174.410 30.370,174.296 29.355 C 173.913 25.952,171.923 25.241,162.700 25.213 L 158.400 25.200 158.400 19.424 C 158.400 16.004,158.237 13.546,158.000 13.400 C 157.780 13.264,157.600 12.812,157.600 12.395 C 157.600 9.470,156.281 8.960,147.700 8.567 L 141.600 8.288 141.600 4.144 L 141.600 0.000 117.200 0.000 L 92.800 0.000 92.719 4.900 L 92.638 9.800 92.419 4.800 L 92.200 -0.200 91.900 7.164 M144.700 9.087 C 144.095 9.178,143.105 9.178,142.500 9.087 C 141.895 8.995,142.390 8.920,143.600 8.920 C 144.810 8.920,145.305 8.995,144.700 9.087 M92.565 14.200 C 92.755 15.620,92.714 16.026,92.423 15.600 C 92.054 15.061,91.790 11.632,92.149 12.033 C 92.231 12.125,92.418 13.100,92.565 14.200 M162.700 25.891 C 161.875 25.978,160.525 25.978,159.700 25.891 C 158.875 25.805,159.550 25.734,161.200 25.734 C 162.850 25.734,163.525 25.805,162.700 25.891 M92.689 33.700 C 92.601 34.415,92.528 33.830,92.528 32.400 C 92.528 30.970,92.601 30.385,92.689 31.100 C 92.778 31.815,92.778 32.985,92.689 33.700 M179.500 42.691 C 178.675 42.778,177.325 42.778,176.500 42.691 C 175.675 42.605,176.350 42.534,178.000 42.534 C 179.650 42.534,180.325 42.605,179.500 42.691 M109.093 47.689 C 109.009 48.630,108.939 47.960,108.937 46.200 C 108.936 44.440,109.005 43.670,109.091 44.489 C 109.177 45.309,109.178 46.749,109.093 47.689 M125.890 67.293 C 125.801 68.012,125.726 67.520,125.724 66.200 C 125.722 64.880,125.795 64.292,125.886 64.893 C 125.977 65.494,125.979 66.574,125.890 67.293 M142.682 86.100 C 142.587 86.595,142.509 86.190,142.509 85.200 C 142.509 84.210,142.587 83.805,142.682 84.300 C 142.778 84.795,142.778 85.605,142.682 86.100 M159.087 100.700 C 158.995 101.305,158.920 100.810,158.920 99.600 C 158.920 98.390,158.995 97.895,159.087 98.500 C 159.178 99.105,159.178 100.095,159.087 100.700 M175.887 119.495 C 175.795 120.103,175.717 119.700,175.714 118.600 C 175.711 117.500,175.787 117.003,175.882 117.495 C 175.977 117.986,175.979 118.886,175.887 119.495 M263.567 127.054 C 263.658 127.134,262.713 127.200,261.467 127.200 C 260.172 127.200,259.200 127.023,259.200 126.786 C 259.200 126.411,263.106 126.651,263.567 127.054 M192.676 130.300 C 192.575 130.685,192.493 130.370,192.493 129.600 C 192.493 128.830,192.575 128.515,192.676 128.900 C 192.776 129.285,192.776 129.915,192.676 130.300 M192.676 137.500 C 192.575 137.885,192.493 137.570,192.493 136.800 C 192.493 136.030,192.575 135.715,192.676 136.100 C 192.776 136.485,192.776 137.115,192.676 137.500 M258.000 139.000 C 258.408 139.491,258.380 139.600,257.849 139.600 C 257.492 139.600,257.200 139.330,257.200 139.000 C 257.200 138.670,257.268 138.400,257.351 138.400 C 257.434 138.400,257.726 138.670,258.000 139.000 M261.503 143.031 C 261.109 143.424,260.400 142.820,260.400 142.091 C 260.400 141.480,260.453 141.481,261.076 142.105 C 261.448 142.477,261.640 142.893,261.503 143.031 M209.082 152.900 C 208.987 153.395,208.909 152.990,208.909 152.000 C 208.909 151.010,208.987 150.605,209.082 151.100 C 209.178 151.595,209.178 152.405,209.082 152.900 M290.000 168.024 C 290.000 168.257,289.801 168.324,289.557 168.174 C 289.259 167.989,289.202 168.177,289.383 168.747 C 289.594 169.410,289.516 169.542,289.026 169.355 C 288.277 169.067,288.199 168.148,288.900 167.865 C 289.718 167.535,290.000 167.576,290.000 168.024 M225.876 170.700 C 225.775 171.085,225.693 170.770,225.693 170.000 C 225.693 169.230,225.775 168.915,225.876 169.300 C 225.976 169.685,225.976 170.315,225.876 170.700 M290.708 173.275 C 290.461 174.017,289.600 174.140,289.600 173.433 C 289.600 173.085,289.885 172.800,290.233 172.800 C 290.582 172.800,290.795 173.014,290.708 173.275 M247.200 208.800 C 246.650 208.976,245.750 209.117,245.200 209.113 C 244.302 209.106,244.322 209.074,245.400 208.800 C 247.092 208.369,248.544 208.369,247.200 208.800 M298.400 222.600 C 299.038 223.369,298.387 223.377,297.376 222.613 C 296.724 222.119,296.704 222.023,297.251 222.013 C 297.609 222.006,298.126 222.270,298.400 222.600 M290.410 226.173 C 290.151 226.854,290.184 227.215,290.520 227.373 C 290.887 227.546,290.881 227.655,290.498 227.834 C 290.221 227.963,290.097 228.233,290.221 228.434 C 290.345 228.635,290.257 228.800,290.024 228.800 C 289.791 228.800,289.600 228.452,289.600 228.026 C 289.600 227.150,290.276 225.200,290.580 225.200 C 290.690 225.200,290.614 225.638,290.410 226.173 M225.876 230.700 C 225.775 231.085,225.693 230.770,225.693 230.000 C 225.693 229.230,225.775 228.915,225.876 229.300 C 225.976 229.685,225.976 230.315,225.876 230.700 M289.600 231.824 C 289.600 232.167,289.434 232.344,289.230 232.219 C 289.027 232.093,288.778 232.307,288.677 232.695 C 288.562 233.135,288.475 232.986,288.446 232.300 C 288.416 231.568,288.601 231.200,289.000 231.200 C 289.330 231.200,289.600 231.481,289.600 231.824 M209.082 248.900 C 208.987 249.395,208.909 248.990,208.909 248.000 C 208.909 247.010,208.987 246.605,209.082 247.100 C 209.178 247.595,209.178 248.405,209.082 248.900 M199.300 259.082 C 198.805 259.178,197.995 259.178,197.500 259.082 C 197.005 258.987,197.410 258.909,198.400 258.909 C 199.390 258.909,199.795 258.987,199.300 259.082 M194.300 260.157 C 193.915 260.449,193.600 260.893,193.600 261.144 C 193.600 261.395,193.420 261.600,193.200 261.600 C 192.980 261.600,192.800 261.433,192.800 261.229 C 192.800 260.694,193.973 259.598,194.529 259.613 C 194.788 259.620,194.685 259.865,194.300 260.157 M192.676 263.900 C 192.575 264.285,192.493 263.970,192.493 263.200 C 192.493 262.430,192.575 262.115,192.676 262.500 C 192.776 262.885,192.776 263.515,192.676 263.900 M192.676 271.100 C 192.575 271.485,192.493 271.170,192.493 270.400 C 192.493 269.630,192.575 269.315,192.676 269.700 C 192.776 270.085,192.776 270.715,192.676 271.100 M182.505 275.882 C 182.014 275.977,181.114 275.979,180.505 275.887 C 179.897 275.795,180.300 275.717,181.400 275.714 C 182.500 275.711,182.997 275.787,182.505 275.882 M178.000 276.629 C 178.000 276.754,177.721 277.136,177.381 277.476 C 176.611 278.247,176.101 277.843,176.792 277.010 C 177.291 276.408,178.000 276.184,178.000 276.629 M175.887 282.295 C 175.795 282.903,175.717 282.500,175.714 281.400 C 175.711 280.300,175.787 279.803,175.882 280.295 C 175.977 280.786,175.979 281.686,175.887 282.295 M175.800 292.400 C 175.664 292.620,174.888 292.774,174.076 292.743 L 172.600 292.686 174.200 292.400 C 175.080 292.242,175.856 292.088,175.924 292.057 C 175.992 292.026,175.936 292.180,175.800 292.400 M165.505 292.675 C 165.122 292.775,164.402 292.779,163.905 292.683 C 163.407 292.587,163.720 292.505,164.600 292.501 C 165.480 292.496,165.887 292.575,165.505 292.675 M159.087 301.500 C 158.995 302.105,158.920 301.610,158.920 300.400 C 158.920 299.190,158.995 298.695,159.087 299.300 C 159.178 299.905,159.178 300.895,159.087 301.500 M152.100 309.089 C 151.385 309.178,150.215 309.178,149.500 309.089 C 148.785 309.001,149.370 308.928,150.800 308.928 C 152.230 308.928,152.815 309.001,152.100 309.089 M142.682 315.700 C 142.587 316.195,142.509 315.790,142.509 314.800 C 142.509 313.810,142.587 313.405,142.682 313.900 C 142.778 314.395,142.778 315.205,142.682 315.700 M135.107 325.886 C 134.506 325.977,133.426 325.979,132.707 325.890 C 131.988 325.801,132.480 325.726,133.800 325.724 C 135.120 325.722,135.708 325.795,135.107 325.886 M129.200 326.800 C 129.200 327.020,128.829 327.200,128.376 327.200 C 127.923 327.200,127.664 327.020,127.800 326.800 C 127.936 326.580,128.307 326.400,128.624 326.400 C 128.941 326.400,129.200 326.580,129.200 326.800 M127.035 329.098 C 126.598 329.535,126.299 328.840,126.612 328.117 C 126.910 327.432,126.932 327.433,127.097 328.131 C 127.193 328.534,127.165 328.969,127.035 329.098 M125.890 334.893 C 125.801 335.612,125.726 335.120,125.724 333.800 C 125.722 332.480,125.795 331.892,125.886 332.493 C 125.977 333.094,125.979 334.174,125.890 334.893 M184.561 341.304 C 185.093 341.836,184.977 342.800,184.379 342.800 C 184.184 342.800,184.124 342.485,184.245 342.100 C 184.452 341.442,184.430 341.443,183.882 342.109 C 183.326 342.784,183.288 342.781,183.094 342.039 C 182.942 341.458,183.048 341.320,183.511 341.498 C 183.919 341.654,184.032 341.576,183.842 341.268 C 183.458 340.646,183.927 340.670,184.561 341.304 M177.424 342.347 C 177.123 342.648,176.679 342.773,176.438 342.624 C 175.674 342.151,175.964 341.683,176.985 341.742 C 177.819 341.791,177.886 341.884,177.424 342.347 M118.307 342.686 C 117.706 342.777,116.626 342.779,115.907 342.690 C 115.188 342.601,115.680 342.526,117.000 342.524 C 118.320 342.522,118.908 342.595,118.307 342.686 M180.970 344.300 C 180.351 345.125,179.654 345.921,179.422 346.069 C 179.190 346.216,178.370 346.905,177.600 347.598 C 176.258 348.806,176.194 348.823,176.068 347.997 C 175.925 347.067,177.055 345.969,177.843 346.272 C 178.109 346.374,178.294 346.152,178.260 345.771 C 178.227 345.394,178.470 344.992,178.800 344.878 C 179.315 344.700,179.322 344.765,178.851 345.335 C 178.494 345.767,178.459 346.000,178.751 346.000 C 178.998 346.000,179.200 345.820,179.200 345.600 C 179.200 345.380,179.560 344.840,180.000 344.400 C 180.440 343.960,180.656 343.600,180.480 343.600 C 180.304 343.600,179.944 343.816,179.680 344.080 C 179.416 344.344,179.200 344.409,179.200 344.224 C 179.200 343.696,180.523 342.827,181.347 342.813 C 182.008 342.801,181.964 342.974,180.970 344.300 M181.651 345.500 C 181.443 345.885,180.762 346.649,180.137 347.199 L 179.000 348.197 180.100 346.977 C 180.705 346.305,181.200 345.541,181.200 345.278 C 181.200 345.015,181.386 344.800,181.614 344.800 C 181.886 344.800,181.898 345.041,181.651 345.500 M175.636 350.369 C 175.326 350.565,174.831 350.633,174.536 350.520 C 173.690 350.196,173.906 349.999,175.100 350.006 C 175.901 350.011,176.047 350.109,175.636 350.369 M109.093 355.289 C 109.009 356.230,108.939 355.560,108.937 353.800 C 108.936 352.040,109.005 351.270,109.091 352.089 C 109.177 352.909,109.178 354.349,109.093 355.289 M106.100 359.093 C 105.165 359.177,103.635 359.177,102.700 359.093 C 101.765 359.009,102.530 358.940,104.400 358.940 C 106.270 358.940,107.035 359.009,106.100 359.093 M92.690 368.493 C 92.601 369.212,92.526 368.720,92.524 367.400 C 92.522 366.080,92.595 365.492,92.686 366.093 C 92.777 366.694,92.779 367.774,92.690 368.493 M92.676 378.700 C 92.575 379.085,92.493 378.770,92.493 378.000 C 92.493 377.230,92.575 376.915,92.676 377.300 C 92.776 377.685,92.776 378.315,92.676 378.700 M92.442 386.400 L 92.088 388.200 92.044 386.733 C 92.020 385.926,92.123 384.945,92.273 384.553 C 92.722 383.383,92.822 384.470,92.442 386.400 " stroke="none" fill="#5444f4" fill-rule="evenodd"></path><path id="path1" d="M91.754 4.800 C 91.754 7.550,91.818 8.675,91.896 7.300 C 91.974 5.925,91.974 3.675,91.896 2.300 C 91.818 0.925,91.754 2.050,91.754 4.800 M92.554 4.800 C 92.554 7.550,92.618 8.675,92.696 7.300 C 92.774 5.925,92.774 3.675,92.696 2.300 C 92.618 0.925,92.554 2.050,92.554 4.800 M142.500 9.087 C 143.105 9.178,144.095 9.178,144.700 9.087 C 145.305 8.995,144.810 8.920,143.600 8.920 C 142.390 8.920,141.895 8.995,142.500 9.087 M92.006 13.433 C 92.009 14.295,92.197 15.270,92.423 15.600 C 92.714 16.026,92.755 15.620,92.565 14.200 C 92.231 11.703,91.998 11.384,92.006 13.433 M92.256 22.645 C 92.115 23.672,92.026 25.702,92.058 27.156 C 92.105 29.302,92.175 28.972,92.430 25.405 C 92.761 20.764,92.683 19.526,92.256 22.645 M159.700 25.891 C 160.525 25.978,161.875 25.978,162.700 25.891 C 163.525 25.805,162.850 25.734,161.200 25.734 C 159.550 25.734,158.875 25.805,159.700 25.891 M92.528 32.400 C 92.528 33.830,92.601 34.415,92.689 33.700 C 92.778 32.985,92.778 31.815,92.689 31.100 C 92.601 30.385,92.528 30.970,92.528 32.400 M176.500 42.691 C 177.325 42.778,178.675 42.778,179.500 42.691 C 180.325 42.605,179.650 42.534,178.000 42.534 C 176.350 42.534,175.675 42.605,176.500 42.691 M108.937 46.200 C 108.939 47.960,109.009 48.630,109.093 47.689 C 109.178 46.749,109.177 45.309,109.091 44.489 C 109.005 43.670,108.936 44.440,108.937 46.200 M125.314 60.200 C 125.317 61.300,125.395 61.703,125.487 61.095 C 125.579 60.486,125.577 59.586,125.482 59.095 C 125.387 58.603,125.311 59.100,125.314 60.200 M125.724 66.200 C 125.726 67.520,125.801 68.012,125.890 67.293 C 125.979 66.574,125.977 65.494,125.886 64.893 C 125.795 64.292,125.722 64.880,125.724 66.200 M142.137 80.200 C 142.139 81.960,142.209 82.630,142.293 81.689 C 142.378 80.749,142.377 79.309,142.291 78.489 C 142.205 77.670,142.136 78.440,142.137 80.200 M142.509 85.200 C 142.509 86.190,142.587 86.595,142.682 86.100 C 142.778 85.605,142.778 84.795,142.682 84.300 C 142.587 83.805,142.509 84.210,142.509 85.200 M158.920 99.600 C 158.920 100.810,158.995 101.305,159.087 100.700 C 159.178 100.095,159.178 99.105,159.087 98.500 C 158.995 97.895,158.920 98.390,158.920 99.600 M175.467 108.667 C 175.320 108.813,175.225 110.388,175.255 112.167 L 175.309 115.400 175.635 112.014 C 175.965 108.583,175.945 108.188,175.467 108.667 M175.714 118.600 C 175.717 119.700,175.795 120.103,175.887 119.495 C 175.979 118.886,175.977 117.986,175.882 117.495 C 175.787 117.003,175.711 117.500,175.714 118.600 M259.200 126.786 C 259.200 127.023,260.172 127.200,261.467 127.200 C 264.196 127.200,264.137 127.002,261.300 126.640 C 259.947 126.468,259.200 126.520,259.200 126.786 M192.493 129.600 C 192.493 130.370,192.575 130.685,192.676 130.300 C 192.776 129.915,192.776 129.285,192.676 128.900 C 192.575 128.515,192.493 128.830,192.493 129.600 M192.120 133.200 C 192.120 134.410,192.195 134.905,192.287 134.300 C 192.378 133.695,192.378 132.705,192.287 132.100 C 192.195 131.495,192.120 131.990,192.120 133.200 M192.493 136.800 C 192.493 137.570,192.575 137.885,192.676 137.500 C 192.776 137.115,192.776 136.485,192.676 136.100 C 192.575 135.715,192.493 136.030,192.493 136.800 M257.200 139.000 C 257.200 139.330,257.492 139.600,257.849 139.600 C 258.380 139.600,258.408 139.491,258.000 139.000 C 257.726 138.670,257.434 138.400,257.351 138.400 C 257.268 138.400,257.200 138.670,257.200 139.000 M208.446 143.900 C 208.492 146.175,208.496 146.183,208.823 144.600 C 209.277 142.405,209.271 141.600,208.800 141.600 C 208.574 141.600,208.420 142.603,208.446 143.900 M260.400 142.091 C 260.400 142.820,261.109 143.424,261.503 143.031 C 261.640 142.893,261.448 142.477,261.076 142.105 C 260.453 141.481,260.400 141.480,260.400 142.091 M208.909 152.000 C 208.909 152.990,208.987 153.395,209.082 152.900 C 209.178 152.405,209.178 151.595,209.082 151.100 C 208.987 150.605,208.909 151.010,208.909 152.000 M225.456 162.084 C 225.321 162.588,225.232 163.990,225.257 165.200 C 225.303 167.372,225.308 167.363,225.648 164.430 C 225.995 161.436,225.910 160.392,225.456 162.084 M288.900 167.865 C 288.199 168.148,288.277 169.067,289.026 169.355 C 289.516 169.542,289.594 169.410,289.383 168.747 C 289.202 168.177,289.259 167.989,289.557 168.174 C 289.801 168.324,290.000 168.257,290.000 168.024 C 290.000 167.576,289.718 167.535,288.900 167.865 M225.693 170.000 C 225.693 170.770,225.775 171.085,225.876 170.700 C 225.976 170.315,225.976 169.685,225.876 169.300 C 225.775 168.915,225.693 169.230,225.693 170.000 M289.600 173.433 C 289.600 174.140,290.461 174.017,290.708 173.275 C 290.795 173.014,290.582 172.800,290.233 172.800 C 289.885 172.800,289.600 173.085,289.600 173.433 M245.400 208.800 C 244.322 209.074,244.302 209.106,245.200 209.113 C 245.750 209.117,246.650 208.976,247.200 208.800 C 248.544 208.369,247.092 208.369,245.400 208.800 M297.376 222.613 C 298.387 223.377,299.038 223.369,298.400 222.600 C 298.126 222.270,297.609 222.006,297.251 222.013 C 296.704 222.023,296.724 222.119,297.376 222.613 M289.990 226.226 C 289.478 227.574,289.494 228.800,290.024 228.800 C 290.257 228.800,290.345 228.635,290.221 228.434 C 290.097 228.233,290.221 227.963,290.498 227.834 C 290.881 227.655,290.887 227.546,290.520 227.373 C 290.184 227.215,290.151 226.854,290.410 226.173 C 290.614 225.638,290.690 225.200,290.580 225.200 C 290.470 225.200,290.205 225.662,289.990 226.226 M225.693 230.000 C 225.693 230.770,225.775 231.085,225.876 230.700 C 225.976 230.315,225.976 229.685,225.876 229.300 C 225.775 228.915,225.693 229.230,225.693 230.000 M288.446 232.300 C 288.475 232.986,288.562 233.135,288.677 232.695 C 288.778 232.307,289.027 232.093,289.230 232.219 C 289.434 232.344,289.600 232.167,289.600 231.824 C 289.600 231.481,289.330 231.200,289.000 231.200 C 288.601 231.200,288.416 231.568,288.446 232.300 M225.228 235.033 C 225.244 236.335,225.414 237.760,225.606 238.200 C 225.822 238.694,225.867 237.853,225.723 236.000 C 225.436 232.324,225.190 231.843,225.228 235.033 M215.305 242.287 C 215.914 242.379,216.814 242.377,217.305 242.282 C 217.797 242.187,217.300 242.111,216.200 242.114 C 215.100 242.117,214.697 242.195,215.305 242.287 M208.909 248.000 C 208.909 248.990,208.987 249.395,209.082 248.900 C 209.178 248.405,209.178 247.595,209.082 247.100 C 208.987 246.605,208.909 247.010,208.909 248.000 M208.448 256.100 L 208.400 258.400 206.300 258.445 L 204.200 258.489 206.117 258.857 C 208.819 259.375,209.399 258.753,208.878 255.898 L 208.495 253.800 208.448 256.100 M197.500 259.082 C 197.995 259.178,198.805 259.178,199.300 259.082 C 199.795 258.987,199.390 258.909,198.400 258.909 C 197.410 258.909,197.005 258.987,197.500 259.082 M193.429 260.229 C 192.715 260.942,192.606 261.600,193.200 261.600 C 193.420 261.600,193.600 261.395,193.600 261.144 C 193.600 260.893,193.915 260.449,194.300 260.157 C 194.685 259.865,194.788 259.620,194.529 259.613 C 194.269 259.606,193.774 259.883,193.429 260.229 M192.493 263.200 C 192.493 263.970,192.575 264.285,192.676 263.900 C 192.776 263.515,192.776 262.885,192.676 262.500 C 192.575 262.115,192.493 262.430,192.493 263.200 M192.120 266.800 C 192.120 268.010,192.195 268.505,192.287 267.900 C 192.378 267.295,192.378 266.305,192.287 265.700 C 192.195 265.095,192.120 265.590,192.120 266.800 M192.493 270.400 C 192.493 271.170,192.575 271.485,192.676 271.100 C 192.776 270.715,192.776 270.085,192.676 269.700 C 192.575 269.315,192.493 269.630,192.493 270.400 M184.833 275.344 C 185.256 275.710,191.615 275.947,191.393 275.589 C 191.261 275.375,189.693 275.200,187.910 275.200 C 186.126 275.200,184.742 275.265,184.833 275.344 M180.505 275.887 C 181.114 275.979,182.014 275.977,182.505 275.882 C 182.997 275.787,182.500 275.711,181.400 275.714 C 180.300 275.717,179.897 275.795,180.505 275.887 M176.792 277.010 C 176.101 277.843,176.611 278.247,177.381 277.476 C 177.721 277.136,178.000 276.754,178.000 276.629 C 178.000 276.184,177.291 276.408,176.792 277.010 M175.714 281.400 C 175.717 282.500,175.795 282.903,175.887 282.295 C 175.979 281.686,175.977 280.786,175.882 280.295 C 175.787 279.803,175.711 280.300,175.714 281.400 M175.200 287.910 C 175.200 289.693,175.375 291.261,175.589 291.393 C 175.947 291.615,175.710 285.256,175.344 284.833 C 175.265 284.742,175.200 286.126,175.200 287.910 M167.891 292.289 C 168.601 292.377,169.861 292.379,170.691 292.292 C 171.521 292.205,170.940 292.133,169.400 292.131 C 167.860 292.129,167.181 292.200,167.891 292.289 M174.200 292.400 L 172.600 292.686 174.076 292.743 C 174.888 292.774,175.664 292.620,175.800 292.400 C 175.936 292.180,175.992 292.026,175.924 292.057 C 175.856 292.088,175.080 292.242,174.200 292.400 M163.905 292.683 C 164.402 292.779,165.122 292.775,165.505 292.675 C 165.887 292.575,165.480 292.496,164.600 292.501 C 163.720 292.505,163.407 292.587,163.905 292.683 M158.920 300.400 C 158.920 301.610,158.995 302.105,159.087 301.500 C 159.178 300.895,159.178 299.905,159.087 299.300 C 158.995 298.695,158.920 299.190,158.920 300.400 M149.500 309.089 C 150.215 309.178,151.385 309.178,152.100 309.089 C 152.815 309.001,152.230 308.928,150.800 308.928 C 149.370 308.928,148.785 309.001,149.500 309.089 M142.509 314.800 C 142.509 315.790,142.587 316.195,142.682 315.700 C 142.778 315.205,142.778 314.395,142.682 313.900 C 142.587 313.405,142.509 313.810,142.509 314.800 M142.134 319.600 C 142.134 321.250,142.205 321.925,142.291 321.100 C 142.378 320.275,142.378 318.925,142.291 318.100 C 142.205 317.275,142.134 317.950,142.134 319.600 M142.373 324.184 C 142.204 325.337,142.143 325.367,140.000 325.329 L 137.800 325.291 139.800 325.557 C 142.102 325.863,142.952 325.393,142.707 323.951 C 142.561 323.087,142.530 323.109,142.373 324.184 M132.707 325.890 C 133.426 325.979,134.506 325.977,135.107 325.886 C 135.708 325.795,135.120 325.722,133.800 325.724 C 132.480 325.726,131.988 325.801,132.707 325.890 M127.800 326.800 C 127.664 327.020,127.923 327.200,128.376 327.200 C 128.829 327.200,129.200 327.020,129.200 326.800 C 129.200 326.580,128.941 326.400,128.624 326.400 C 128.307 326.400,127.936 326.580,127.800 326.800 M126.612 328.117 C 126.441 328.512,126.413 328.947,126.551 329.084 C 126.957 329.490,127.284 328.920,127.097 328.131 C 126.932 327.433,126.910 327.432,126.612 328.117 M125.724 333.800 C 125.726 335.120,125.801 335.612,125.890 334.893 C 125.979 334.174,125.977 333.094,125.886 332.493 C 125.795 331.892,125.722 332.480,125.724 333.800 M125.270 339.882 L 125.200 341.963 122.500 342.103 L 119.800 342.243 122.513 342.322 C 125.590 342.411,125.738 342.273,125.495 339.546 C 125.340 337.805,125.340 337.806,125.270 339.882 M183.842 341.268 C 184.032 341.576,183.919 341.654,183.511 341.498 C 183.048 341.320,182.942 341.458,183.094 342.039 C 183.288 342.781,183.326 342.784,183.882 342.109 C 184.430 341.443,184.452 341.442,184.245 342.100 C 184.124 342.485,184.184 342.800,184.379 342.800 C 184.977 342.800,185.093 341.836,184.561 341.304 C 183.927 340.670,183.458 340.646,183.842 341.268 M176.000 342.019 C 176.000 342.679,176.888 342.884,177.424 342.347 C 177.886 341.884,177.819 341.791,176.985 341.742 C 176.443 341.711,176.000 341.835,176.000 342.019 M115.907 342.690 C 116.626 342.779,117.706 342.777,118.307 342.686 C 118.908 342.595,118.320 342.522,117.000 342.524 C 115.680 342.526,115.188 342.601,115.907 342.690 M179.900 343.357 C 179.515 343.649,179.200 344.039,179.200 344.224 C 179.200 344.409,179.416 344.344,179.680 344.080 C 179.944 343.816,180.304 343.600,180.480 343.600 C 180.656 343.600,180.440 343.960,180.000 344.400 C 179.560 344.840,179.200 345.380,179.200 345.600 C 179.200 345.820,178.998 346.000,178.751 346.000 C 178.459 346.000,178.494 345.767,178.851 345.335 C 179.322 344.765,179.315 344.700,178.800 344.878 C 178.470 344.992,178.227 345.394,178.260 345.771 C 178.294 346.152,178.109 346.374,177.843 346.272 C 177.055 345.969,175.925 347.067,176.068 347.997 C 176.194 348.823,176.258 348.806,177.600 347.598 C 178.370 346.905,179.190 346.216,179.422 346.069 C 179.654 345.921,180.351 345.125,180.970 344.300 C 182.172 342.697,181.523 342.125,179.900 343.357 M181.200 345.278 C 181.200 345.541,180.705 346.305,180.100 346.977 L 179.000 348.197 180.137 347.199 C 181.475 346.023,182.228 344.800,181.614 344.800 C 181.386 344.800,181.200 345.015,181.200 345.278 M174.000 350.157 C 174.000 350.546,175.127 350.692,175.636 350.369 C 176.047 350.109,175.901 350.011,175.100 350.006 C 174.495 350.003,174.000 350.071,174.000 350.157 M108.937 353.800 C 108.939 355.560,109.009 356.230,109.093 355.289 C 109.178 354.349,109.177 352.909,109.091 352.089 C 109.005 351.270,108.936 352.040,108.937 353.800 M102.700 359.093 C 103.635 359.177,105.165 359.177,106.100 359.093 C 107.035 359.009,106.270 358.940,104.400 358.940 C 102.530 358.940,101.765 359.009,102.700 359.093 M92.524 367.400 C 92.526 368.720,92.601 369.212,92.690 368.493 C 92.779 367.774,92.777 366.694,92.686 366.093 C 92.595 365.492,92.522 366.080,92.524 367.400 M92.137 373.400 C 92.139 375.160,92.209 375.830,92.293 374.889 C 92.378 373.949,92.377 372.509,92.291 371.689 C 92.205 370.870,92.136 371.640,92.137 373.400 M92.493 378.000 C 92.493 378.770,92.575 379.085,92.676 378.700 C 92.776 378.315,92.776 377.685,92.676 377.300 C 92.575 376.915,92.493 377.230,92.493 378.000 M92.273 384.553 C 92.123 384.945,92.020 385.926,92.044 386.733 L 92.088 388.200 92.442 386.400 C 92.822 384.470,92.722 383.383,92.273 384.553 M91.754 395.200 C 91.754 397.950,91.818 399.075,91.896 397.700 C 91.974 396.325,91.974 394.075,91.896 392.700 C 91.818 391.325,91.754 392.450,91.754 395.200 M92.554 395.200 C 92.554 397.950,92.618 399.075,92.696 397.700 C 92.774 396.325,92.774 394.075,92.696 392.700 C 92.618 391.325,92.554 392.450,92.554 395.200 " stroke="none" fill="#5844f4" fill-rule="evenodd"></path><path id="path2" d="M91.754 4.800 C 91.754 7.550,91.818 8.675,91.896 7.300 C 91.974 5.925,91.974 3.675,91.896 2.300 C 91.818 0.925,91.754 2.050,91.754 4.800 M92.554 4.800 C 92.554 7.550,92.618 8.675,92.696 7.300 C 92.774 5.925,92.774 3.675,92.696 2.300 C 92.618 0.925,92.554 2.050,92.554 4.800 M142.500 9.087 C 143.105 9.178,144.095 9.178,144.700 9.087 C 145.305 8.995,144.810 8.920,143.600 8.920 C 142.390 8.920,141.895 8.995,142.500 9.087 M92.006 13.433 C 92.009 14.295,92.197 15.270,92.423 15.600 C 92.714 16.026,92.755 15.620,92.565 14.200 C 92.231 11.703,91.998 11.384,92.006 13.433 M92.256 22.645 C 92.115 23.672,92.026 25.702,92.058 27.156 C 92.105 29.302,92.175 28.972,92.430 25.405 C 92.761 20.764,92.683 19.526,92.256 22.645 M159.700 25.891 C 160.525 25.978,161.875 25.978,162.700 25.891 C 163.525 25.805,162.850 25.734,161.200 25.734 C 159.550 25.734,158.875 25.805,159.700 25.891 M92.528 32.400 C 92.528 33.830,92.601 34.415,92.689 33.700 C 92.778 32.985,92.778 31.815,92.689 31.100 C 92.601 30.385,92.528 30.970,92.528 32.400 M176.500 42.691 C 177.325 42.778,178.675 42.778,179.500 42.691 C 180.325 42.605,179.650 42.534,178.000 42.534 C 176.350 42.534,175.675 42.605,176.500 42.691 M108.937 46.200 C 108.939 47.960,109.009 48.630,109.093 47.689 C 109.178 46.749,109.177 45.309,109.091 44.489 C 109.005 43.670,108.936 44.440,108.937 46.200 M125.314 60.200 C 125.317 61.300,125.395 61.703,125.487 61.095 C 125.579 60.486,125.577 59.586,125.482 59.095 C 125.387 58.603,125.311 59.100,125.314 60.200 M125.724 66.200 C 125.726 67.520,125.801 68.012,125.890 67.293 C 125.979 66.574,125.977 65.494,125.886 64.893 C 125.795 64.292,125.722 64.880,125.724 66.200 M142.137 80.200 C 142.139 81.960,142.209 82.630,142.293 81.689 C 142.378 80.749,142.377 79.309,142.291 78.489 C 142.205 77.670,142.136 78.440,142.137 80.200 M142.509 85.200 C 142.509 86.190,142.587 86.595,142.682 86.100 C 142.778 85.605,142.778 84.795,142.682 84.300 C 142.587 83.805,142.509 84.210,142.509 85.200 M158.920 99.600 C 158.920 100.810,158.995 101.305,159.087 100.700 C 159.178 100.095,159.178 99.105,159.087 98.500 C 158.995 97.895,158.920 98.390,158.920 99.600 M175.467 108.667 C 175.320 108.813,175.225 110.388,175.255 112.167 L 175.309 115.400 175.635 112.014 C 175.965 108.583,175.945 108.188,175.467 108.667 M175.714 118.600 C 175.717 119.700,175.795 120.103,175.887 119.495 C 175.979 118.886,175.977 117.986,175.882 117.495 C 175.787 117.003,175.711 117.500,175.714 118.600 M259.200 126.786 C 259.200 127.023,260.172 127.200,261.467 127.200 C 264.196 127.200,264.137 127.002,261.300 126.640 C 259.947 126.468,259.200 126.520,259.200 126.786 M192.493 129.600 C 192.493 130.370,192.575 130.685,192.676 130.300 C 192.776 129.915,192.776 129.285,192.676 128.900 C 192.575 128.515,192.493 128.830,192.493 129.600 M192.120 133.200 C 192.120 134.410,192.195 134.905,192.287 134.300 C 192.378 133.695,192.378 132.705,192.287 132.100 C 192.195 131.495,192.120 131.990,192.120 133.200 M192.493 136.800 C 192.493 137.570,192.575 137.885,192.676 137.500 C 192.776 137.115,192.776 136.485,192.676 136.100 C 192.575 135.715,192.493 136.030,192.493 136.800 M257.200 139.000 C 257.200 139.330,257.492 139.600,257.849 139.600 C 258.380 139.600,258.408 139.491,258.000 139.000 C 257.726 138.670,257.434 138.400,257.351 138.400 C 257.268 138.400,257.200 138.670,257.200 139.000 M208.446 143.900 C 208.492 146.175,208.496 146.183,208.823 144.600 C 209.277 142.405,209.271 141.600,208.800 141.600 C 208.574 141.600,208.420 142.603,208.446 143.900 M260.400 142.091 C 260.400 142.820,261.109 143.424,261.503 143.031 C 261.640 142.893,261.448 142.477,261.076 142.105 C 260.453 141.481,260.400 141.480,260.400 142.091 M208.909 152.000 C 208.909 152.990,208.987 153.395,209.082 152.900 C 209.178 152.405,209.178 151.595,209.082 151.100 C 208.987 150.605,208.909 151.010,208.909 152.000 M225.456 162.084 C 225.321 162.588,225.232 163.990,225.257 165.200 C 225.303 167.372,225.308 167.363,225.648 164.430 C 225.995 161.436,225.910 160.392,225.456 162.084 M288.900 167.865 C 288.199 168.148,288.277 169.067,289.026 169.355 C 289.516 169.542,289.594 169.410,289.383 168.747 C 289.202 168.177,289.259 167.989,289.557 168.174 C 289.801 168.324,290.000 168.257,290.000 168.024 C 290.000 167.576,289.718 167.535,288.900 167.865 M225.693 170.000 C 225.693 170.770,225.775 171.085,225.876 170.700 C 225.976 170.315,225.976 169.685,225.876 169.300 C 225.775 168.915,225.693 169.230,225.693 170.000 M289.600 173.433 C 289.600 174.140,290.461 174.017,290.708 173.275 C 290.795 173.014,290.582 172.800,290.233 172.800 C 289.885 172.800,289.600 173.085,289.600 173.433 M245.400 208.800 C 244.322 209.074,244.302 209.106,245.200 209.113 C 245.750 209.117,246.650 208.976,247.200 208.800 C 248.544 208.369,247.092 208.369,245.400 208.800 M297.376 222.613 C 298.387 223.377,299.038 223.369,298.400 222.600 C 298.126 222.270,297.609 222.006,297.251 222.013 C 296.704 222.023,296.724 222.119,297.376 222.613 M289.990 226.226 C 289.478 227.574,289.494 228.800,290.024 228.800 C 290.257 228.800,290.345 228.635,290.221 228.434 C 290.097 228.233,290.221 227.963,290.498 227.834 C 290.881 227.655,290.887 227.546,290.520 227.373 C 290.184 227.215,290.151 226.854,290.410 226.173 C 290.614 225.638,290.690 225.200,290.580 225.200 C 290.470 225.200,290.205 225.662,289.990 226.226 M225.693 230.000 C 225.693 230.770,225.775 231.085,225.876 230.700 C 225.976 230.315,225.976 229.685,225.876 229.300 C 225.775 228.915,225.693 229.230,225.693 230.000 M288.446 232.300 C 288.475 232.986,288.562 233.135,288.677 232.695 C 288.778 232.307,289.027 232.093,289.230 232.219 C 289.434 232.344,289.600 232.167,289.600 231.824 C 289.600 231.481,289.330 231.200,289.000 231.200 C 288.601 231.200,288.416 231.568,288.446 232.300 M225.228 235.033 C 225.244 236.335,225.414 237.760,225.606 238.200 C 225.822 238.694,225.867 237.853,225.723 236.000 C 225.436 232.324,225.190 231.843,225.228 235.033 M215.305 242.287 C 215.914 242.379,216.814 242.377,217.305 242.282 C 217.797 242.187,217.300 242.111,216.200 242.114 C 215.100 242.117,214.697 242.195,215.305 242.287 M208.909 248.000 C 208.909 248.990,208.987 249.395,209.082 248.900 C 209.178 248.405,209.178 247.595,209.082 247.100 C 208.987 246.605,208.909 247.010,208.909 248.000 M208.448 256.100 L 208.400 258.400 206.300 258.445 L 204.200 258.489 206.117 258.857 C 208.819 259.375,209.399 258.753,208.878 255.898 L 208.495 253.800 208.448 256.100 M197.500 259.082 C 197.995 259.178,198.805 259.178,199.300 259.082 C 199.795 258.987,199.390 258.909,198.400 258.909 C 197.410 258.909,197.005 258.987,197.500 259.082 M193.429 260.229 C 192.715 260.942,192.606 261.600,193.200 261.600 C 193.420 261.600,193.600 261.395,193.600 261.144 C 193.600 260.893,193.915 260.449,194.300 260.157 C 194.685 259.865,194.788 259.620,194.529 259.613 C 194.269 259.606,193.774 259.883,193.429 260.229 M192.493 263.200 C 192.493 263.970,192.575 264.285,192.676 263.900 C 192.776 263.515,192.776 262.885,192.676 262.500 C 192.575 262.115,192.493 262.430,192.493 263.200 M192.120 266.800 C 192.120 268.010,192.195 268.505,192.287 267.900 C 192.378 267.295,192.378 266.305,192.287 265.700 C 192.195 265.095,192.120 265.590,192.120 266.800 M192.493 270.400 C 192.493 271.170,192.575 271.485,192.676 271.100 C 192.776 270.715,192.776 270.085,192.676 269.700 C 192.575 269.315,192.493 269.630,192.493 270.400 M184.833 275.344 C 185.256 275.710,191.615 275.947,191.393 275.589 C 191.261 275.375,189.693 275.200,187.910 275.200 C 186.126 275.200,184.742 275.265,184.833 275.344 M180.505 275.887 C 181.114 275.979,182.014 275.977,182.505 275.882 C 182.997 275.787,182.500 275.711,181.400 275.714 C 180.300 275.717,179.897 275.795,180.505 275.887 M176.792 277.010 C 176.101 277.843,176.611 278.247,177.381 277.476 C 177.721 277.136,178.000 276.754,178.000 276.629 C 178.000 276.184,177.291 276.408,176.792 277.010 M175.714 281.400 C 175.717 282.500,175.795 282.903,175.887 282.295 C 175.979 281.686,175.977 280.786,175.882 280.295 C 175.787 279.803,175.711 280.300,175.714 281.400 M175.200 287.910 C 175.200 289.693,175.375 291.261,175.589 291.393 C 175.947 291.615,175.710 285.256,175.344 284.833 C 175.265 284.742,175.200 286.126,175.200 287.910 M167.891 292.289 C 168.601 292.377,169.861 292.379,170.691 292.292 C 171.521 292.205,170.940 292.133,169.400 292.131 C 167.860 292.129,167.181 292.200,167.891 292.289 M174.200 292.400 L 172.600 292.686 174.076 292.743 C 174.888 292.774,175.664 292.620,175.800 292.400 C 175.936 292.180,175.992 292.026,175.924 292.057 C 175.856 292.088,175.080 292.242,174.200 292.400 M163.905 292.683 C 164.402 292.779,165.122 292.775,165.505 292.675 C 165.887 292.575,165.480 292.496,164.600 292.501 C 163.720 292.505,163.407 292.587,163.905 292.683 M158.920 300.400 C 158.920 301.610,158.995 302.105,159.087 301.500 C 159.178 300.895,159.178 299.905,159.087 299.300 C 158.995 298.695,158.920 299.190,158.920 300.400 M149.500 309.089 C 150.215 309.178,151.385 309.178,152.100 309.089 C 152.815 309.001,152.230 308.928,150.800 308.928 C 149.370 308.928,148.785 309.001,149.500 309.089 M142.509 314.800 C 142.509 315.790,142.587 316.195,142.682 315.700 C 142.778 315.205,142.778 314.395,142.682 313.900 C 142.587 313.405,142.509 313.810,142.509 314.800 M142.134 319.600 C 142.134 321.250,142.205 321.925,142.291 321.100 C 142.378 320.275,142.378 318.925,142.291 318.100 C 142.205 317.275,142.134 317.950,142.134 319.600 M142.373 324.184 C 142.204 325.337,142.143 325.367,140.000 325.329 L 137.800 325.291 139.800 325.557 C 142.102 325.863,142.952 325.393,142.707 323.951 C 142.561 323.087,142.530 323.109,142.373 324.184 M132.707 325.890 C 133.426 325.979,134.506 325.977,135.107 325.886 C 135.708 325.795,135.120 325.722,133.800 325.724 C 132.480 325.726,131.988 325.801,132.707 325.890 M127.800 326.800 C 127.664 327.020,127.923 327.200,128.376 327.200 C 128.829 327.200,129.200 327.020,129.200 326.800 C 129.200 326.580,128.941 326.400,128.624 326.400 C 128.307 326.400,127.936 326.580,127.800 326.800 M126.612 328.117 C 126.441 328.512,126.413 328.947,126.551 329.084 C 126.957 329.490,127.284 328.920,127.097 328.131 C 126.932 327.433,126.910 327.432,126.612 328.117 M125.724 333.800 C 125.726 335.120,125.801 335.612,125.890 334.893 C 125.979 334.174,125.977 333.094,125.886 332.493 C 125.795 331.892,125.722 332.480,125.724 333.800 M125.270 339.882 L 125.200 341.963 122.500 342.103 L 119.800 342.243 122.513 342.322 C 125.590 342.411,125.738 342.273,125.495 339.546 C 125.340 337.805,125.340 337.806,125.270 339.882 M183.842 341.268 C 184.032 341.576,183.919 341.654,183.511 341.498 C 183.048 341.320,182.942 341.458,183.094 342.039 C 183.288 342.781,183.326 342.784,183.882 342.109 C 184.430 341.443,184.452 341.442,184.245 342.100 C 184.124 342.485,184.184 342.800,184.379 342.800 C 184.977 342.800,185.093 341.836,184.561 341.304 C 183.927 340.670,183.458 340.646,183.842 341.268 M176.000 342.019 C 176.000 342.679,176.888 342.884,177.424 342.347 C 177.886 341.884,177.819 341.791,176.985 341.742 C 176.443 341.711,176.000 341.835,176.000 342.019 M115.907 342.690 C 116.626 342.779,117.706 342.777,118.307 342.686 C 118.908 342.595,118.320 342.522,117.000 342.524 C 115.680 342.526,115.188 342.601,115.907 342.690 M179.900 343.357 C 179.515 343.649,179.200 344.039,179.200 344.224 C 179.200 344.409,179.416 344.344,179.680 344.080 C 179.944 343.816,180.304 343.600,180.480 343.600 C 180.656 343.600,180.440 343.960,180.000 344.400 C 179.560 344.840,179.200 345.380,179.200 345.600 C 179.200 345.820,178.998 346.000,178.751 346.000 C 178.459 346.000,178.494 345.767,178.851 345.335 C 179.322 344.765,179.315 344.700,178.800 344.878 C 178.470 344.992,178.227 345.394,178.260 345.771 C 178.294 346.152,178.109 346.374,177.843 346.272 C 177.055 345.969,175.925 347.067,176.068 347.997 C 176.194 348.823,176.258 348.806,177.600 347.598 C 178.370 346.905,179.190 346.216,179.422 346.069 C 179.654 345.921,180.351 345.125,180.970 344.300 C 182.172 342.697,181.523 342.125,179.900 343.357 M181.200 345.278 C 181.200 345.541,180.705 346.305,180.100 346.977 L 179.000 348.197 180.137 347.199 C 181.475 346.023,182.228 344.800,181.614 344.800 C 181.386 344.800,181.200 345.015,181.200 345.278 M174.000 350.157 C 174.000 350.546,175.127 350.692,175.636 350.369 C 176.047 350.109,175.901 350.011,175.100 350.006 C 174.495 350.003,174.000 350.071,174.000 350.157 M108.937 353.800 C 108.939 355.560,109.009 356.230,109.093 355.289 C 109.178 354.349,109.177 352.909,109.091 352.089 C 109.005 351.270,108.936 352.040,108.937 353.800 M102.700 359.093 C 103.635 359.177,105.165 359.177,106.100 359.093 C 107.035 359.009,106.270 358.940,104.400 358.940 C 102.530 358.940,101.765 359.009,102.700 359.093 M92.524 367.400 C 92.526 368.720,92.601 369.212,92.690 368.493 C 92.779 367.774,92.777 366.694,92.686 366.093 C 92.595 365.492,92.522 366.080,92.524 367.400 M92.137 373.400 C 92.139 375.160,92.209 375.830,92.293 374.889 C 92.378 373.949,92.377 372.509,92.291 371.689 C 92.205 370.870,92.136 371.640,92.137 373.400 M92.493 378.000 C 92.493 378.770,92.575 379.085,92.676 378.700 C 92.776 378.315,92.776 377.685,92.676 377.300 C 92.575 376.915,92.493 377.230,92.493 378.000 M92.273 384.553 C 92.123 384.945,92.020 385.926,92.044 386.733 L 92.088 388.200 92.442 386.400 C 92.822 384.470,92.722 383.383,92.273 384.553 M91.754 395.200 C 91.754 397.950,91.818 399.075,91.896 397.700 C 91.974 396.325,91.974 394.075,91.896 392.700 C 91.818 391.325,91.754 392.450,91.754 395.200 M92.554 395.200 C 92.554 397.950,92.618 399.075,92.696 397.700 C 92.774 396.325,92.774 394.075,92.696 392.700 C 92.618 391.325,92.554 392.450,92.554 395.200 " stroke="none" fill="#5844f4" fill-rule="evenodd"></path><path id="path3" d="M91.754 4.800 C 91.754 7.550,91.818 8.675,91.896 7.300 C 91.974 5.925,91.974 3.675,91.896 2.300 C 91.818 0.925,91.754 2.050,91.754 4.800 M92.554 4.800 C 92.554 7.550,92.618 8.675,92.696 7.300 C 92.774 5.925,92.774 3.675,92.696 2.300 C 92.618 0.925,92.554 2.050,92.554 4.800 M142.500 9.087 C 143.105 9.178,144.095 9.178,144.700 9.087 C 145.305 8.995,144.810 8.920,143.600 8.920 C 142.390 8.920,141.895 8.995,142.500 9.087 M92.006 13.433 C 92.009 14.295,92.197 15.270,92.423 15.600 C 92.714 16.026,92.755 15.620,92.565 14.200 C 92.231 11.703,91.998 11.384,92.006 13.433 M92.256 22.645 C 92.115 23.672,92.026 25.702,92.058 27.156 C 92.105 29.302,92.175 28.972,92.430 25.405 C 92.761 20.764,92.683 19.526,92.256 22.645 M159.700 25.891 C 160.525 25.978,161.875 25.978,162.700 25.891 C 163.525 25.805,162.850 25.734,161.200 25.734 C 159.550 25.734,158.875 25.805,159.700 25.891 M92.528 32.400 C 92.528 33.830,92.601 34.415,92.689 33.700 C 92.778 32.985,92.778 31.815,92.689 31.100 C 92.601 30.385,92.528 30.970,92.528 32.400 M176.500 42.691 C 177.325 42.778,178.675 42.778,179.500 42.691 C 180.325 42.605,179.650 42.534,178.000 42.534 C 176.350 42.534,175.675 42.605,176.500 42.691 M108.937 46.200 C 108.939 47.960,109.009 48.630,109.093 47.689 C 109.178 46.749,109.177 45.309,109.091 44.489 C 109.005 43.670,108.936 44.440,108.937 46.200 M125.314 60.200 C 125.317 61.300,125.395 61.703,125.487 61.095 C 125.579 60.486,125.577 59.586,125.482 59.095 C 125.387 58.603,125.311 59.100,125.314 60.200 M125.724 66.200 C 125.726 67.520,125.801 68.012,125.890 67.293 C 125.979 66.574,125.977 65.494,125.886 64.893 C 125.795 64.292,125.722 64.880,125.724 66.200 M142.137 80.200 C 142.139 81.960,142.209 82.630,142.293 81.689 C 142.378 80.749,142.377 79.309,142.291 78.489 C 142.205 77.670,142.136 78.440,142.137 80.200 M142.509 85.200 C 142.509 86.190,142.587 86.595,142.682 86.100 C 142.778 85.605,142.778 84.795,142.682 84.300 C 142.587 83.805,142.509 84.210,142.509 85.200 M158.920 99.600 C 158.920 100.810,158.995 101.305,159.087 100.700 C 159.178 100.095,159.178 99.105,159.087 98.500 C 158.995 97.895,158.920 98.390,158.920 99.600 M175.467 108.667 C 175.320 108.813,175.225 110.388,175.255 112.167 L 175.309 115.400 175.635 112.014 C 175.965 108.583,175.945 108.188,175.467 108.667 M175.714 118.600 C 175.717 119.700,175.795 120.103,175.887 119.495 C 175.979 118.886,175.977 117.986,175.882 117.495 C 175.787 117.003,175.711 117.500,175.714 118.600 M259.200 126.786 C 259.200 127.023,260.172 127.200,261.467 127.200 C 264.196 127.200,264.137 127.002,261.300 126.640 C 259.947 126.468,259.200 126.520,259.200 126.786 M192.493 129.600 C 192.493 130.370,192.575 130.685,192.676 130.300 C 192.776 129.915,192.776 129.285,192.676 128.900 C 192.575 128.515,192.493 128.830,192.493 129.600 M192.120 133.200 C 192.120 134.410,192.195 134.905,192.287 134.300 C 192.378 133.695,192.378 132.705,192.287 132.100 C 192.195 131.495,192.120 131.990,192.120 133.200 M192.493 136.800 C 192.493 137.570,192.575 137.885,192.676 137.500 C 192.776 137.115,192.776 136.485,192.676 136.100 C 192.575 135.715,192.493 136.030,192.493 136.800 M257.200 139.000 C 257.200 139.330,257.492 139.600,257.849 139.600 C 258.380 139.600,258.408 139.491,258.000 139.000 C 257.726 138.670,257.434 138.400,257.351 138.400 C 257.268 138.400,257.200 138.670,257.200 139.000 M208.446 143.900 C 208.492 146.175,208.496 146.183,208.823 144.600 C 209.277 142.405,209.271 141.600,208.800 141.600 C 208.574 141.600,208.420 142.603,208.446 143.900 M260.400 142.091 C 260.400 142.820,261.109 143.424,261.503 143.031 C 261.640 142.893,261.448 142.477,261.076 142.105 C 260.453 141.481,260.400 141.480,260.400 142.091 M208.909 152.000 C 208.909 152.990,208.987 153.395,209.082 152.900 C 209.178 152.405,209.178 151.595,209.082 151.100 C 208.987 150.605,208.909 151.010,208.909 152.000 M225.456 162.084 C 225.321 162.588,225.232 163.990,225.257 165.200 C 225.303 167.372,225.308 167.363,225.648 164.430 C 225.995 161.436,225.910 160.392,225.456 162.084 M288.900 167.865 C 288.199 168.148,288.277 169.067,289.026 169.355 C 289.516 169.542,289.594 169.410,289.383 168.747 C 289.202 168.177,289.259 167.989,289.557 168.174 C 289.801 168.324,290.000 168.257,290.000 168.024 C 290.000 167.576,289.718 167.535,288.900 167.865 M225.693 170.000 C 225.693 170.770,225.775 171.085,225.876 170.700 C 225.976 170.315,225.976 169.685,225.876 169.300 C 225.775 168.915,225.693 169.230,225.693 170.000 M289.600 173.433 C 289.600 174.140,290.461 174.017,290.708 173.275 C 290.795 173.014,290.582 172.800,290.233 172.800 C 289.885 172.800,289.600 173.085,289.600 173.433 M245.400 208.800 C 244.322 209.074,244.302 209.106,245.200 209.113 C 245.750 209.117,246.650 208.976,247.200 208.800 C 248.544 208.369,247.092 208.369,245.400 208.800 M297.376 222.613 C 298.387 223.377,299.038 223.369,298.400 222.600 C 298.126 222.270,297.609 222.006,297.251 222.013 C 296.704 222.023,296.724 222.119,297.376 222.613 M289.990 226.226 C 289.478 227.574,289.494 228.800,290.024 228.800 C 290.257 228.800,290.345 228.635,290.221 228.434 C 290.097 228.233,290.221 227.963,290.498 227.834 C 290.881 227.655,290.887 227.546,290.520 227.373 C 290.184 227.215,290.151 226.854,290.410 226.173 C 290.614 225.638,290.690 225.200,290.580 225.200 C 290.470 225.200,290.205 225.662,289.990 226.226 M225.693 230.000 C 225.693 230.770,225.775 231.085,225.876 230.700 C 225.976 230.315,225.976 229.685,225.876 229.300 C 225.775 228.915,225.693 229.230,225.693 230.000 M288.446 232.300 C 288.475 232.986,288.562 233.135,288.677 232.695 C 288.778 232.307,289.027 232.093,289.230 232.219 C 289.434 232.344,289.600 232.167,289.600 231.824 C 289.600 231.481,289.330 231.200,289.000 231.200 C 288.601 231.200,288.416 231.568,288.446 232.300 M225.228 235.033 C 225.244 236.335,225.414 237.760,225.606 238.200 C 225.822 238.694,225.867 237.853,225.723 236.000 C 225.436 232.324,225.190 231.843,225.228 235.033 M215.305 242.287 C 215.914 242.379,216.814 242.377,217.305 242.282 C 217.797 242.187,217.300 242.111,216.200 242.114 C 215.100 242.117,214.697 242.195,215.305 242.287 M208.909 248.000 C 208.909 248.990,208.987 249.395,209.082 248.900 C 209.178 248.405,209.178 247.595,209.082 247.100 C 208.987 246.605,208.909 247.010,208.909 248.000 M208.448 256.100 L 208.400 258.400 206.300 258.445 L 204.200 258.489 206.117 258.857 C 208.819 259.375,209.399 258.753,208.878 255.898 L 208.495 253.800 208.448 256.100 M197.500 259.082 C 197.995 259.178,198.805 259.178,199.300 259.082 C 199.795 258.987,199.390 258.909,198.400 258.909 C 197.410 258.909,197.005 258.987,197.500 259.082 M193.429 260.229 C 192.715 260.942,192.606 261.600,193.200 261.600 C 193.420 261.600,193.600 261.395,193.600 261.144 C 193.600 260.893,193.915 260.449,194.300 260.157 C 194.685 259.865,194.788 259.620,194.529 259.613 C 194.269 259.606,193.774 259.883,193.429 260.229 M192.493 263.200 C 192.493 263.970,192.575 264.285,192.676 263.900 C 192.776 263.515,192.776 262.885,192.676 262.500 C 192.575 262.115,192.493 262.430,192.493 263.200 M192.120 266.800 C 192.120 268.010,192.195 268.505,192.287 267.900 C 192.378 267.295,192.378 266.305,192.287 265.700 C 192.195 265.095,192.120 265.590,192.120 266.800 M192.493 270.400 C 192.493 271.170,192.575 271.485,192.676 271.100 C 192.776 270.715,192.776 270.085,192.676 269.700 C 192.575 269.315,192.493 269.630,192.493 270.400 M184.833 275.344 C 185.256 275.710,191.615 275.947,191.393 275.589 C 191.261 275.375,189.693 275.200,187.910 275.200 C 186.126 275.200,184.742 275.265,184.833 275.344 M180.505 275.887 C 181.114 275.979,182.014 275.977,182.505 275.882 C 182.997 275.787,182.500 275.711,181.400 275.714 C 180.300 275.717,179.897 275.795,180.505 275.887 M176.792 277.010 C 176.101 277.843,176.611 278.247,177.381 277.476 C 177.721 277.136,178.000 276.754,178.000 276.629 C 178.000 276.184,177.291 276.408,176.792 277.010 M175.714 281.400 C 175.717 282.500,175.795 282.903,175.887 282.295 C 175.979 281.686,175.977 280.786,175.882 280.295 C 175.787 279.803,175.711 280.300,175.714 281.400 M175.200 287.910 C 175.200 289.693,175.375 291.261,175.589 291.393 C 175.947 291.615,175.710 285.256,175.344 284.833 C 175.265 284.742,175.200 286.126,175.200 287.910 M167.891 292.289 C 168.601 292.377,169.861 292.379,170.691 292.292 C 171.521 292.205,170.940 292.133,169.400 292.131 C 167.860 292.129,167.181 292.200,167.891 292.289 M174.200 292.400 L 172.600 292.686 174.076 292.743 C 174.888 292.774,175.664 292.620,175.800 292.400 C 175.936 292.180,175.992 292.026,175.924 292.057 C 175.856 292.088,175.080 292.242,174.200 292.400 M163.905 292.683 C 164.402 292.779,165.122 292.775,165.505 292.675 C 165.887 292.575,165.480 292.496,164.600 292.501 C 163.720 292.505,163.407 292.587,163.905 292.683 M158.920 300.400 C 158.920 301.610,158.995 302.105,159.087 301.500 C 159.178 300.895,159.178 299.905,159.087 299.300 C 158.995 298.695,158.920 299.190,158.920 300.400 M149.500 309.089 C 150.215 309.178,151.385 309.178,152.100 309.089 C 152.815 309.001,152.230 308.928,150.800 308.928 C 149.370 308.928,148.785 309.001,149.500 309.089 M142.509 314.800 C 142.509 315.790,142.587 316.195,142.682 315.700 C 142.778 315.205,142.778 314.395,142.682 313.900 C 142.587 313.405,142.509 313.810,142.509 314.800 M142.134 319.600 C 142.134 321.250,142.205 321.925,142.291 321.100 C 142.378 320.275,142.378 318.925,142.291 318.100 C 142.205 317.275,142.134 317.950,142.134 319.600 M142.373 324.184 C 142.204 325.337,142.143 325.367,140.000 325.329 L 137.800 325.291 139.800 325.557 C 142.102 325.863,142.952 325.393,142.707 323.951 C 142.561 323.087,142.530 323.109,142.373 324.184 M132.707 325.890 C 133.426 325.979,134.506 325.977,135.107 325.886 C 135.708 325.795,135.120 325.722,133.800 325.724 C 132.480 325.726,131.988 325.801,132.707 325.890 M127.800 326.800 C 127.664 327.020,127.923 327.200,128.376 327.200 C 128.829 327.200,129.200 327.020,129.200 326.800 C 129.200 326.580,128.941 326.400,128.624 326.400 C 128.307 326.400,127.936 326.580,127.800 326.800 M126.612 328.117 C 126.441 328.512,126.413 328.947,126.551 329.084 C 126.957 329.490,127.284 328.920,127.097 328.131 C 126.932 327.433,126.910 327.432,126.612 328.117 M125.724 333.800 C 125.726 335.120,125.801 335.612,125.890 334.893 C 125.979 334.174,125.977 333.094,125.886 332.493 C 125.795 331.892,125.722 332.480,125.724 333.800 M125.270 339.882 L 125.200 341.963 122.500 342.103 L 119.800 342.243 122.513 342.322 C 125.590 342.411,125.738 342.273,125.495 339.546 C 125.340 337.805,125.340 337.806,125.270 339.882 M183.842 341.268 C 184.032 341.576,183.919 341.654,183.511 341.498 C 183.048 341.320,182.942 341.458,183.094 342.039 C 183.288 342.781,183.326 342.784,183.882 342.109 C 184.430 341.443,184.452 341.442,184.245 342.100 C 184.124 342.485,184.184 342.800,184.379 342.800 C 184.977 342.800,185.093 341.836,184.561 341.304 C 183.927 340.670,183.458 340.646,183.842 341.268 M176.000 342.019 C 176.000 342.679,176.888 342.884,177.424 342.347 C 177.886 341.884,177.819 341.791,176.985 341.742 C 176.443 341.711,176.000 341.835,176.000 342.019 M115.907 342.690 C 116.626 342.779,117.706 342.777,118.307 342.686 C 118.908 342.595,118.320 342.522,117.000 342.524 C 115.680 342.526,115.188 342.601,115.907 342.690 M179.900 343.357 C 179.515 343.649,179.200 344.039,179.200 344.224 C 179.200 344.409,179.416 344.344,179.680 344.080 C 179.944 343.816,180.304 343.600,180.480 343.600 C 180.656 343.600,180.440 343.960,180.000 344.400 C 179.560 344.840,179.200 345.380,179.200 345.600 C 179.200 345.820,178.998 346.000,178.751 346.000 C 178.459 346.000,178.494 345.767,178.851 345.335 C 179.322 344.765,179.315 344.700,178.800 344.878 C 178.470 344.992,178.227 345.394,178.260 345.771 C 178.294 346.152,178.109 346.374,177.843 346.272 C 177.055 345.969,175.925 347.067,176.068 347.997 C 176.194 348.823,176.258 348.806,177.600 347.598 C 178.370 346.905,179.190 346.216,179.422 346.069 C 179.654 345.921,180.351 345.125,180.970 344.300 C 182.172 342.697,181.523 342.125,179.900 343.357 M181.200 345.278 C 181.200 345.541,180.705 346.305,180.100 346.977 L 179.000 348.197 180.137 347.199 C 181.475 346.023,182.228 344.800,181.614 344.800 C 181.386 344.800,181.200 345.015,181.200 345.278 M174.000 350.157 C 174.000 350.546,175.127 350.692,175.636 350.369 C 176.047 350.109,175.901 350.011,175.100 350.006 C 174.495 350.003,174.000 350.071,174.000 350.157 M108.937 353.800 C 108.939 355.560,109.009 356.230,109.093 355.289 C 109.178 354.349,109.177 352.909,109.091 352.089 C 109.005 351.270,108.936 352.040,108.937 353.800 M102.700 359.093 C 103.635 359.177,105.165 359.177,106.100 359.093 C 107.035 359.009,106.270 358.940,104.400 358.940 C 102.530 358.940,101.765 359.009,102.700 359.093 M92.524 367.400 C 92.526 368.720,92.601 369.212,92.690 368.493 C 92.779 367.774,92.777 366.694,92.686 366.093 C 92.595 365.492,92.522 366.080,92.524 367.400 M92.137 373.400 C 92.139 375.160,92.209 375.830,92.293 374.889 C 92.378 373.949,92.377 372.509,92.291 371.689 C 92.205 370.870,92.136 371.640,92.137 373.400 M92.493 378.000 C 92.493 378.770,92.575 379.085,92.676 378.700 C 92.776 378.315,92.776 377.685,92.676 377.300 C 92.575 376.915,92.493 377.230,92.493 378.000 M92.273 384.553 C 92.123 384.945,92.020 385.926,92.044 386.733 L 92.088 388.200 92.442 386.400 C 92.822 384.470,92.722 383.383,92.273 384.553 M91.754 395.200 C 91.754 397.950,91.818 399.075,91.896 397.700 C 91.974 396.325,91.974 394.075,91.896 392.700 C 91.818 391.325,91.754 392.450,91.754 395.200 M92.554 395.200 C 92.554 397.950,92.618 399.075,92.696 397.700 C 92.774 396.325,92.774 394.075,92.696 392.700 C 92.618 391.325,92.554 392.450,92.554 395.200 " stroke="none" fill="#5844f4" fill-rule="evenodd"></path><path id="path4" d="M91.754 4.800 C 91.754 7.550,91.818 8.675,91.896 7.300 C 91.974 5.925,91.974 3.675,91.896 2.300 C 91.818 0.925,91.754 2.050,91.754 4.800 M92.554 4.800 C 92.554 7.550,92.618 8.675,92.696 7.300 C 92.774 5.925,92.774 3.675,92.696 2.300 C 92.618 0.925,92.554 2.050,92.554 4.800 M142.500 9.087 C 143.105 9.178,144.095 9.178,144.700 9.087 C 145.305 8.995,144.810 8.920,143.600 8.920 C 142.390 8.920,141.895 8.995,142.500 9.087 M92.006 13.433 C 92.009 14.295,92.197 15.270,92.423 15.600 C 92.714 16.026,92.755 15.620,92.565 14.200 C 92.231 11.703,91.998 11.384,92.006 13.433 M92.256 22.645 C 92.115 23.672,92.026 25.702,92.058 27.156 C 92.105 29.302,92.175 28.972,92.430 25.405 C 92.761 20.764,92.683 19.526,92.256 22.645 M159.700 25.891 C 160.525 25.978,161.875 25.978,162.700 25.891 C 163.525 25.805,162.850 25.734,161.200 25.734 C 159.550 25.734,158.875 25.805,159.700 25.891 M92.528 32.400 C 92.528 33.830,92.601 34.415,92.689 33.700 C 92.778 32.985,92.778 31.815,92.689 31.100 C 92.601 30.385,92.528 30.970,92.528 32.400 M176.500 42.691 C 177.325 42.778,178.675 42.778,179.500 42.691 C 180.325 42.605,179.650 42.534,178.000 42.534 C 176.350 42.534,175.675 42.605,176.500 42.691 M108.937 46.200 C 108.939 47.960,109.009 48.630,109.093 47.689 C 109.178 46.749,109.177 45.309,109.091 44.489 C 109.005 43.670,108.936 44.440,108.937 46.200 M125.314 60.200 C 125.317 61.300,125.395 61.703,125.487 61.095 C 125.579 60.486,125.577 59.586,125.482 59.095 C 125.387 58.603,125.311 59.100,125.314 60.200 M125.724 66.200 C 125.726 67.520,125.801 68.012,125.890 67.293 C 125.979 66.574,125.977 65.494,125.886 64.893 C 125.795 64.292,125.722 64.880,125.724 66.200 M142.137 80.200 C 142.139 81.960,142.209 82.630,142.293 81.689 C 142.378 80.749,142.377 79.309,142.291 78.489 C 142.205 77.670,142.136 78.440,142.137 80.200 M142.509 85.200 C 142.509 86.190,142.587 86.595,142.682 86.100 C 142.778 85.605,142.778 84.795,142.682 84.300 C 142.587 83.805,142.509 84.210,142.509 85.200 M158.920 99.600 C 158.920 100.810,158.995 101.305,159.087 100.700 C 159.178 100.095,159.178 99.105,159.087 98.500 C 158.995 97.895,158.920 98.390,158.920 99.600 M175.467 108.667 C 175.320 108.813,175.225 110.388,175.255 112.167 L 175.309 115.400 175.635 112.014 C 175.965 108.583,175.945 108.188,175.467 108.667 M175.714 118.600 C 175.717 119.700,175.795 120.103,175.887 119.495 C 175.979 118.886,175.977 117.986,175.882 117.495 C 175.787 117.003,175.711 117.500,175.714 118.600 M259.200 126.786 C 259.200 127.023,260.172 127.200,261.467 127.200 C 264.196 127.200,264.137 127.002,261.300 126.640 C 259.947 126.468,259.200 126.520,259.200 126.786 M192.493 129.600 C 192.493 130.370,192.575 130.685,192.676 130.300 C 192.776 129.915,192.776 129.285,192.676 128.900 C 192.575 128.515,192.493 128.830,192.493 129.600 M192.120 133.200 C 192.120 134.410,192.195 134.905,192.287 134.300 C 192.378 133.695,192.378 132.705,192.287 132.100 C 192.195 131.495,192.120 131.990,192.120 133.200 M192.493 136.800 C 192.493 137.570,192.575 137.885,192.676 137.500 C 192.776 137.115,192.776 136.485,192.676 136.100 C 192.575 135.715,192.493 136.030,192.493 136.800 M257.200 139.000 C 257.200 139.330,257.492 139.600,257.849 139.600 C 258.380 139.600,258.408 139.491,258.000 139.000 C 257.726 138.670,257.434 138.400,257.351 138.400 C 257.268 138.400,257.200 138.670,257.200 139.000 M208.446 143.900 C 208.492 146.175,208.496 146.183,208.823 144.600 C 209.277 142.405,209.271 141.600,208.800 141.600 C 208.574 141.600,208.420 142.603,208.446 143.900 M260.400 142.091 C 260.400 142.820,261.109 143.424,261.503 143.031 C 261.640 142.893,261.448 142.477,261.076 142.105 C 260.453 141.481,260.400 141.480,260.400 142.091 M208.909 152.000 C 208.909 152.990,208.987 153.395,209.082 152.900 C 209.178 152.405,209.178 151.595,209.082 151.100 C 208.987 150.605,208.909 151.010,208.909 152.000 M225.456 162.084 C 225.321 162.588,225.232 163.990,225.257 165.200 C 225.303 167.372,225.308 167.363,225.648 164.430 C 225.995 161.436,225.910 160.392,225.456 162.084 M288.900 167.865 C 288.199 168.148,288.277 169.067,289.026 169.355 C 289.516 169.542,289.594 169.410,289.383 168.747 C 289.202 168.177,289.259 167.989,289.557 168.174 C 289.801 168.324,290.000 168.257,290.000 168.024 C 290.000 167.576,289.718 167.535,288.900 167.865 M225.693 170.000 C 225.693 170.770,225.775 171.085,225.876 170.700 C 225.976 170.315,225.976 169.685,225.876 169.300 C 225.775 168.915,225.693 169.230,225.693 170.000 M289.600 173.433 C 289.600 174.140,290.461 174.017,290.708 173.275 C 290.795 173.014,290.582 172.800,290.233 172.800 C 289.885 172.800,289.600 173.085,289.600 173.433 M245.400 208.800 C 244.322 209.074,244.302 209.106,245.200 209.113 C 245.750 209.117,246.650 208.976,247.200 208.800 C 248.544 208.369,247.092 208.369,245.400 208.800 M297.376 222.613 C 298.387 223.377,299.038 223.369,298.400 222.600 C 298.126 222.270,297.609 222.006,297.251 222.013 C 296.704 222.023,296.724 222.119,297.376 222.613 M289.990 226.226 C 289.478 227.574,289.494 228.800,290.024 228.800 C 290.257 228.800,290.345 228.635,290.221 228.434 C 290.097 228.233,290.221 227.963,290.498 227.834 C 290.881 227.655,290.887 227.546,290.520 227.373 C 290.184 227.215,290.151 226.854,290.410 226.173 C 290.614 225.638,290.690 225.200,290.580 225.200 C 290.470 225.200,290.205 225.662,289.990 226.226 M225.693 230.000 C 225.693 230.770,225.775 231.085,225.876 230.700 C 225.976 230.315,225.976 229.685,225.876 229.300 C 225.775 228.915,225.693 229.230,225.693 230.000 M288.446 232.300 C 288.475 232.986,288.562 233.135,288.677 232.695 C 288.778 232.307,289.027 232.093,289.230 232.219 C 289.434 232.344,289.600 232.167,289.600 231.824 C 289.600 231.481,289.330 231.200,289.000 231.200 C 288.601 231.200,288.416 231.568,288.446 232.300 M225.228 235.033 C 225.244 236.335,225.414 237.760,225.606 238.200 C 225.822 238.694,225.867 237.853,225.723 236.000 C 225.436 232.324,225.190 231.843,225.228 235.033 M215.305 242.287 C 215.914 242.379,216.814 242.377,217.305 242.282 C 217.797 242.187,217.300 242.111,216.200 242.114 C 215.100 242.117,214.697 242.195,215.305 242.287 M208.909 248.000 C 208.909 248.990,208.987 249.395,209.082 248.900 C 209.178 248.405,209.178 247.595,209.082 247.100 C 208.987 246.605,208.909 247.010,208.909 248.000 M208.448 256.100 L 208.400 258.400 206.300 258.445 L 204.200 258.489 206.117 258.857 C 208.819 259.375,209.399 258.753,208.878 255.898 L 208.495 253.800 208.448 256.100 M197.500 259.082 C 197.995 259.178,198.805 259.178,199.300 259.082 C 199.795 258.987,199.390 258.909,198.400 258.909 C 197.410 258.909,197.005 258.987,197.500 259.082 M193.429 260.229 C 192.715 260.942,192.606 261.600,193.200 261.600 C 193.420 261.600,193.600 261.395,193.600 261.144 C 193.600 260.893,193.915 260.449,194.300 260.157 C 194.685 259.865,194.788 259.620,194.529 259.613 C 194.269 259.606,193.774 259.883,193.429 260.229 M192.493 263.200 C 192.493 263.970,192.575 264.285,192.676 263.900 C 192.776 263.515,192.776 262.885,192.676 262.500 C 192.575 262.115,192.493 262.430,192.493 263.200 M192.120 266.800 C 192.120 268.010,192.195 268.505,192.287 267.900 C 192.378 267.295,192.378 266.305,192.287 265.700 C 192.195 265.095,192.120 265.590,192.120 266.800 M192.493 270.400 C 192.493 271.170,192.575 271.485,192.676 271.100 C 192.776 270.715,192.776 270.085,192.676 269.700 C 192.575 269.315,192.493 269.630,192.493 270.400 M184.833 275.344 C 185.256 275.710,191.615 275.947,191.393 275.589 C 191.261 275.375,189.693 275.200,187.910 275.200 C 186.126 275.200,184.742 275.265,184.833 275.344 M180.505 275.887 C 181.114 275.979,182.014 275.977,182.505 275.882 C 182.997 275.787,182.500 275.711,181.400 275.714 C 180.300 275.717,179.897 275.795,180.505 275.887 M176.792 277.010 C 176.101 277.843,176.611 278.247,177.381 277.476 C 177.721 277.136,178.000 276.754,178.000 276.629 C 178.000 276.184,177.291 276.408,176.792 277.010 M175.714 281.400 C 175.717 282.500,175.795 282.903,175.887 282.295 C 175.979 281.686,175.977 280.786,175.882 280.295 C 175.787 279.803,175.711 280.300,175.714 281.400 M175.200 287.910 C 175.200 289.693,175.375 291.261,175.589 291.393 C 175.947 291.615,175.710 285.256,175.344 284.833 C 175.265 284.742,175.200 286.126,175.200 287.910 M167.891 292.289 C 168.601 292.377,169.861 292.379,170.691 292.292 C 171.521 292.205,170.940 292.133,169.400 292.131 C 167.860 292.129,167.181 292.200,167.891 292.289 M174.200 292.400 L 172.600 292.686 174.076 292.743 C 174.888 292.774,175.664 292.620,175.800 292.400 C 175.936 292.180,175.992 292.026,175.924 292.057 C 175.856 292.088,175.080 292.242,174.200 292.400 M163.905 292.683 C 164.402 292.779,165.122 292.775,165.505 292.675 C 165.887 292.575,165.480 292.496,164.600 292.501 C 163.720 292.505,163.407 292.587,163.905 292.683 M158.920 300.400 C 158.920 301.610,158.995 302.105,159.087 301.500 C 159.178 300.895,159.178 299.905,159.087 299.300 C 158.995 298.695,158.920 299.190,158.920 300.400 M149.500 309.089 C 150.215 309.178,151.385 309.178,152.100 309.089 C 152.815 309.001,152.230 308.928,150.800 308.928 C 149.370 308.928,148.785 309.001,149.500 309.089 M142.509 314.800 C 142.509 315.790,142.587 316.195,142.682 315.700 C 142.778 315.205,142.778 314.395,142.682 313.900 C 142.587 313.405,142.509 313.810,142.509 314.800 M142.134 319.600 C 142.134 321.250,142.205 321.925,142.291 321.100 C 142.378 320.275,142.378 318.925,142.291 318.100 C 142.205 317.275,142.134 317.950,142.134 319.600 M142.373 324.184 C 142.204 325.337,142.143 325.367,140.000 325.329 L 137.800 325.291 139.800 325.557 C 142.102 325.863,142.952 325.393,142.707 323.951 C 142.561 323.087,142.530 323.109,142.373 324.184 M132.707 325.890 C 133.426 325.979,134.506 325.977,135.107 325.886 C 135.708 325.795,135.120 325.722,133.800 325.724 C 132.480 325.726,131.988 325.801,132.707 325.890 M127.800 326.800 C 127.664 327.020,127.923 327.200,128.376 327.200 C 128.829 327.200,129.200 327.020,129.200 326.800 C 129.200 326.580,128.941 326.400,128.624 326.400 C 128.307 326.400,127.936 326.580,127.800 326.800 M126.612 328.117 C 126.441 328.512,126.413 328.947,126.551 329.084 C 126.957 329.490,127.284 328.920,127.097 328.131 C 126.932 327.433,126.910 327.432,126.612 328.117 M125.724 333.800 C 125.726 335.120,125.801 335.612,125.890 334.893 C 125.979 334.174,125.977 333.094,125.886 332.493 C 125.795 331.892,125.722 332.480,125.724 333.800 M125.270 339.882 L 125.200 341.963 122.500 342.103 L 119.800 342.243 122.513 342.322 C 125.590 342.411,125.738 342.273,125.495 339.546 C 125.340 337.805,125.340 337.806,125.270 339.882 M183.842 341.268 C 184.032 341.576,183.919 341.654,183.511 341.498 C 183.048 341.320,182.942 341.458,183.094 342.039 C 183.288 342.781,183.326 342.784,183.882 342.109 C 184.430 341.443,184.452 341.442,184.245 342.100 C 184.124 342.485,184.184 342.800,184.379 342.800 C 184.977 342.800,185.093 341.836,184.561 341.304 C 183.927 340.670,183.458 340.646,183.842 341.268 M176.000 342.019 C 176.000 342.679,176.888 342.884,177.424 342.347 C 177.886 341.884,177.819 341.791,176.985 341.742 C 176.443 341.711,176.000 341.835,176.000 342.019 M115.907 342.690 C 116.626 342.779,117.706 342.777,118.307 342.686 C 118.908 342.595,118.320 342.522,117.000 342.524 C 115.680 342.526,115.188 342.601,115.907 342.690 M179.900 343.357 C 179.515 343.649,179.200 344.039,179.200 344.224 C 179.200 344.409,179.416 344.344,179.680 344.080 C 179.944 343.816,180.304 343.600,180.480 343.600 C 180.656 343.600,180.440 343.960,180.000 344.400 C 179.560 344.840,179.200 345.380,179.200 345.600 C 179.200 345.820,178.998 346.000,178.751 346.000 C 178.459 346.000,178.494 345.767,178.851 345.335 C 179.322 344.765,179.315 344.700,178.800 344.878 C 178.470 344.992,178.227 345.394,178.260 345.771 C 178.294 346.152,178.109 346.374,177.843 346.272 C 177.055 345.969,175.925 347.067,176.068 347.997 C 176.194 348.823,176.258 348.806,177.600 347.598 C 178.370 346.905,179.190 346.216,179.422 346.069 C 179.654 345.921,180.351 345.125,180.970 344.300 C 182.172 342.697,181.523 342.125,179.900 343.357 M181.200 345.278 C 181.200 345.541,180.705 346.305,180.100 346.977 L 179.000 348.197 180.137 347.199 C 181.475 346.023,182.228 344.800,181.614 344.800 C 181.386 344.800,181.200 345.015,181.200 345.278 M174.000 350.157 C 174.000 350.546,175.127 350.692,175.636 350.369 C 176.047 350.109,175.901 350.011,175.100 350.006 C 174.495 350.003,174.000 350.071,174.000 350.157 M108.937 353.800 C 108.939 355.560,109.009 356.230,109.093 355.289 C 109.178 354.349,109.177 352.909,109.091 352.089 C 109.005 351.270,108.936 352.040,108.937 353.800 M102.700 359.093 C 103.635 359.177,105.165 359.177,106.100 359.093 C 107.035 359.009,106.270 358.940,104.400 358.940 C 102.530 358.940,101.765 359.009,102.700 359.093 M92.524 367.400 C 92.526 368.720,92.601 369.212,92.690 368.493 C 92.779 367.774,92.777 366.694,92.686 366.093 C 92.595 365.492,92.522 366.080,92.524 367.400 M92.137 373.400 C 92.139 375.160,92.209 375.830,92.293 374.889 C 92.378 373.949,92.377 372.509,92.291 371.689 C 92.205 370.870,92.136 371.640,92.137 373.400 M92.493 378.000 C 92.493 378.770,92.575 379.085,92.676 378.700 C 92.776 378.315,92.776 377.685,92.676 377.300 C 92.575 376.915,92.493 377.230,92.493 378.000 M92.273 384.553 C 92.123 384.945,92.020 385.926,92.044 386.733 L 92.088 388.200 92.442 386.400 C 92.822 384.470,92.722 383.383,92.273 384.553 M91.754 395.200 C 91.754 397.950,91.818 399.075,91.896 397.700 C 91.974 396.325,91.974 394.075,91.896 392.700 C 91.818 391.325,91.754 392.450,91.754 395.200 M92.554 395.200 C 92.554 397.950,92.618 399.075,92.696 397.700 C 92.774 396.325,92.774 394.075,92.696 392.700 C 92.618 391.325,92.554 392.450,92.554 395.200 " stroke="none" fill="#5844f4" fill-rule="evenodd"></path></g></svg>