<svg width="20" height="20" viewBox="0 0 20 20" fill="none" xmlns="http://www.w3.org/2000/svg">
<path d="M18.0584 11.9167L17.725 16.0833C17.6 17.3583 17.5 18.3333 15.2417 18.3333H4.75836C2.50003 18.3333 2.40003 17.3583 2.27503 16.0833L1.9417 11.9167C1.87503 11.225 2.0917 10.5833 2.48336 10.0917C2.4917 10.0833 2.4917 10.0833 2.50003 10.075C2.95836 9.51667 3.65003 9.16667 4.42503 9.16667H15.575C16.35 9.16667 17.0334 9.51667 17.4834 10.0583C17.4917 10.0667 17.5 10.075 17.5 10.0833C17.9084 10.575 18.1334 11.2167 18.0584 11.9167Z" stroke="#5444F2" stroke-width="1.5" stroke-miterlimit="10"/>
<path d="M2.91669 9.525V5.23333C2.91669 2.4 3.62502 1.69167 6.45835 1.69167H7.51669C8.57502 1.69167 8.81669 2.00833 9.21669 2.54167L10.275 3.95833C10.5417 4.30833 10.7 4.525 11.4084 4.525H13.5334C16.3667 4.525 17.075 5.23333 17.075 8.06667V9.55833" stroke="#5444F2" stroke-width="1.5" stroke-miterlimit="10" stroke-linecap="round" stroke-linejoin="round"/>
<path d="M7.85834 14.1667H12.1417" stroke="#5444F2" stroke-width="1.5" stroke-miterlimit="10" stroke-linecap="round" stroke-linejoin="round"/>
</svg>
