<svg width="20" height="20" viewBox="0 0 20 20" fill="none" xmlns="http://www.w3.org/2000/svg">
<path d="M5.00002 3.33332C6.39169 2.29166 8.12502 1.66666 10 1.66666C14.6 1.66666 18.3334 5.39999 18.3334 9.99999C18.3334 14.6 14.6 18.3333 10 18.3333C5.40002 18.3333 1.66669 14.6 1.66669 9.99999C1.66669 8.49166 2.06668 7.07498 2.77501 5.84998L10 9.99999" stroke="#65717C" stroke-width="1.5" stroke-miterlimit="10" stroke-linecap="round" stroke-linejoin="round"/>
<path d="M5.69166 7.46666C5.24999 8.20833 5 9.075 5 10C5 12.7583 7.24167 15 10 15C12.7583 15 15 12.7583 15 10C15 7.24167 12.7583 5 10 5C9.24167 5 8.51668 5.16667 7.87501 5.47501" stroke="#65717C" stroke-width="1.5" stroke-miterlimit="10" stroke-linecap="round" stroke-linejoin="round"/>
</svg>
